<?xml version="1.0" encoding="UTF-8" standalone="no"?>
<!DOCTYPE svg PUBLIC "-//W3C//DTD SVG 1.1//EN" "http://www.w3.org/Graphics/SVG/1.1/DTD/svg11.dtd">
<svg width="100%" height="100%" viewBox="0 0 2400 2400" version="1.1" xmlns="http://www.w3.org/2000/svg" xmlns:xlink="http://www.w3.org/1999/xlink" xml:space="preserve" xmlns:serif="http://www.serif.com/" style="fill-rule:evenodd;clip-rule:evenodd;stroke-linecap:round;stroke-linejoin:round;stroke-miterlimit:0.96;">
    <g id="FILL">
        <circle cx="1200" cy="1200" r="886" style="fill:rgb(236,222,199);"/>
        <clipPath id="_clip1">
            <circle cx="1200" cy="1200" r="886"/>
        </clipPath>
        <g clip-path="url(#_clip1)">
            <path d="M310.326,1040.1C306.801,1039.58 313.715,1031.3 314,1031.3C314,1031.3 348.244,1032.09 366.647,1032.14C429.333,1032.3 626.093,1032.74 705.448,1026.13C741.08,1023.16 864.552,1026.56 953.194,1018.5C971.016,1016.88 970.82,1020.39 1176.8,1012.15C1179.37,1012.05 1191.82,1010.99 1221.46,1009.93C1246.57,1009.04 1224.04,1010.26 1272.9,1009.45C1285.15,984.75 1285.97,984.503 1308.29,934.073C1316.63,915.222 1307.59,935.315 1335.15,868.248C1338.05,861.186 1348.44,833.852 1355.94,812.685C1359.96,801.355 1371.16,809.509 1383.19,810.503C1407.13,812.481 1626.11,824.867 1685,810.144C1695.83,807.435 1695.1,806.063 1705.69,803.704C1714.45,816.845 1706.74,803.998 1720.82,828.732C1735.28,854.148 1748.71,879.585 1776.4,923.545C1794.1,951.644 1796.11,955.46 1816.99,987.388C1820.28,992.418 1824.14,1005.8 1835.16,1004.98C1838.37,1004.75 2074.94,1002.98 2076.31,1007.07C2076.86,1008.74 2075.2,1009.01 2080.12,1028.67C2081,1032.19 2097.76,1054.06 2097.91,1056.62C2101.53,1121.88 2105.55,1140.98 2069.96,1148.1C2049.37,1152.21 2052.64,1168.75 1998.81,1164.61C1858.48,1153.82 1858.52,1186.34 1612.58,1170.96C1585.59,1169.28 1521.89,1165.3 1274.63,1176.05C1259.24,1176.71 1259.9,1184.13 1082.78,1192.56C769.616,1207.48 769.939,1204 456.432,1204C439.81,1204 407.834,1192.7 400.531,1192.56C342.125,1191.48 341.48,1196.17 311.596,1186.21C290.524,1179.18 296.519,1077.88 307.785,1055.35C307.785,1055.35 310.122,1041.32 310.326,1040.1Z" style="fill:rgb(154,86,54);"/>
            <path d="M320.731,1343.42C404.73,1305.93 528.787,1339.89 611.912,1329.51C714.473,1316.68 880.754,1418.49 1102.75,1359.3C1116.59,1355.6 1338.15,1346.42 1366.61,1347.95C1492.21,1354.68 1505.69,1362.32 1628.37,1337.79C1648.3,1333.8 1780.37,1305.11 1922.88,1290.11C1948.38,1287.43 2023.03,1268.39 2073.66,1273.16C2116.26,1277.18 2104,1230.38 2100.2,1185.07C2098.22,1161.48 2100.91,1140.93 2086,1139.5C2024.53,1133.6 1976.3,1131.29 1940.58,1131.2C1771.61,1130.81 1783.75,1149.32 1717.19,1146.96C1677.9,1145.56 1507.12,1157.5 1399.15,1165.68C1309.85,1172.46 1230.94,1160.7 1225.14,1160.54C1123.47,1157.72 1030.66,1175.76 963.627,1173.91C879.314,1171.59 824.212,1171.65 756.823,1167.25C626.51,1158.74 565.713,1181.7 491.698,1185.87C365.311,1192.99 345.36,1165.94 314,1162.72" style="fill:rgb(205,172,124);"/>
            <path d="M343.448,1489.02C412.356,1516.23 775.578,1461.46 879.679,1486.9C1254.88,1578.62 1260.59,1462.93 1643.95,1496.9C1858.98,1515.96 2081.89,1482.86 2086,1430.3C2086.64,1422.09 2097.97,1274.36 2086,1269.87C2076.11,1266.16 2009.75,1273.26 1957.52,1273.35C1907.98,1273.44 1847.49,1264.92 1788.48,1271.24C1675.96,1283.3 1563.91,1314.09 1508.89,1314.09C1297.02,1314.09 1278.03,1288.02 1083.62,1302.31C815.81,1322 825.794,1289.73 526.83,1316.91C400.859,1328.36 414.249,1318.68 314,1317.52" style="fill:rgb(183,95,60);"/>
            <path d="M340.825,1479.24C432.785,1512.55 673.315,1425.34 890.014,1468.68C1032.17,1497.11 1126.91,1483.64 1202.73,1476.27C1337.34,1463.18 1416.2,1475.82 1642.7,1494.65C1871.67,1513.69 1957.98,1434.03 2104.78,1462.7C2159.31,1473.35 2091.47,1575.94 2091.47,1575.94C2078.82,1604.59 2074.28,1643.12 2040.7,1643.01C1984.99,1642.81 1896.41,1653.02 1832.14,1642.65C1400.58,1573.04 1388.7,1702.52 1051.94,1642.65C780.532,1594.4 441.958,1634.51 390.845,1613.21" style="fill:rgb(150,157,138);"/>
            <path d="M428.316,1606.52C657.382,1644.69 652.932,1586.27 884.047,1605.14C997.797,1614.42 1003.12,1615.67 1117.52,1627.93C1386.36,1656.73 1411.11,1585.41 1593.94,1615.88C1602.68,1617.34 1672.28,1626.35 1767.91,1630.66C1888.53,1636.1 1917.69,1605.81 2008.44,1626.3C2055.16,1636.85 1996.97,1632.95 1969.99,1673.43C1941.89,1715.58 1930.56,1783.05 1822.5,1767.62C1769.63,1760.07 1694.81,1783.53 1583.95,1785.79C1525.62,1786.97 1454.98,1779.34 1375.16,1778.82C1301.44,1778.35 1214.73,1789.52 1119.76,1787.05C1068.53,1785.72 897.302,1765.15 720.215,1754.53C602.731,1747.48 469.598,1764.69 453.334,1732.29C444.217,1714.12 422.638,1649.82 400.052,1612.43C370.392,1563.32 408.214,1610.54 428.316,1606.52Z" style="fill:rgb(167,157,139);"/>
            <path d="M492.131,1750.22C675.063,1729.13 782.832,1722.2 877.786,1747.38C963.931,1770.23 1063.14,1783.57 1233.4,1770.06C1327.98,1762.55 1394.66,1752.13 1446.57,1751.71C1532.68,1751.01 1581.65,1763.28 1675.57,1755.06C1899.53,1735.47 1920.8,1729.26 1919.5,1747.5C1918.58,1760.36 1857.09,1863.09 1749.17,1910.3C1654.24,1951.83 1637.12,2039.83 1306.21,2094.98C1220.02,2109.35 959.65,2088.98 923.471,2070.89C779.89,1999.1 779.105,2001.95 661.173,1922.35C646.482,1912.43 590.087,1896.33 562.142,1835.36C555.656,1821.21 472.804,1755.43 476.494,1744.36" style="fill:rgb(97,76,58);"/>
        </g>
        <circle cx="874" cy="720" r="108" style="fill:rgb(196,96,58);stroke:black;stroke-width:10px;"/>
    </g>
    <g id="INK-EXPORT">
        <g transform="matrix(1,-1.25558e-16,1.22465e-16,1,-581.132,-566.977)">
            <g transform="matrix(89.1703,-35.1095,35.1095,89.1703,1386.43,863.605)">
                <path d="M0.212,-0.209C0.223,-0.175 0.243,-0.149 0.272,-0.132C0.301,-0.114 0.338,-0.105 0.383,-0.105C0.432,-0.105 0.471,-0.116 0.499,-0.138C0.527,-0.159 0.541,-0.189 0.541,-0.226C0.541,-0.255 0.532,-0.278 0.513,-0.295C0.494,-0.312 0.465,-0.323 0.427,-0.328L0.321,-0.34C0.246,-0.349 0.19,-0.374 0.151,-0.413C0.112,-0.452 0.093,-0.504 0.093,-0.571C0.093,-0.621 0.105,-0.664 0.13,-0.701C0.154,-0.737 0.188,-0.765 0.232,-0.786C0.276,-0.807 0.327,-0.817 0.386,-0.817C0.445,-0.817 0.496,-0.807 0.54,-0.788C0.584,-0.768 0.619,-0.74 0.645,-0.704C0.67,-0.667 0.685,-0.623 0.688,-0.571L0.562,-0.571C0.552,-0.611 0.532,-0.642 0.502,-0.663C0.471,-0.684 0.433,-0.695 0.386,-0.695C0.335,-0.695 0.294,-0.684 0.265,-0.662C0.236,-0.64 0.221,-0.61 0.221,-0.572C0.221,-0.543 0.231,-0.521 0.25,-0.504C0.269,-0.487 0.298,-0.475 0.335,-0.47L0.441,-0.458C0.516,-0.449 0.573,-0.425 0.612,-0.386C0.65,-0.347 0.669,-0.294 0.669,-0.227C0.669,-0.178 0.657,-0.135 0.634,-0.099C0.61,-0.062 0.577,-0.034 0.534,-0.014C0.491,0.007 0.441,0.017 0.383,0.017C0.325,0.017 0.274,0.008 0.23,-0.01C0.186,-0.028 0.151,-0.054 0.126,-0.088C0.101,-0.121 0.086,-0.162 0.083,-0.209L0.212,-0.209Z" style="fill-rule:nonzero;"/>
            </g>
            <g transform="matrix(93.3304,-21.7591,21.7591,93.3304,1521.94,815.81)">
                <path d="M0.31,-0L0.31,-0.676L0.055,-0.676L0.055,-0.8L0.695,-0.8L0.695,-0.676L0.44,-0.676L0.44,-0L0.31,-0Z" style="fill-rule:nonzero;"/>
            </g>
            <g transform="matrix(95.5268,-7.65834,7.65834,95.5268,1662.99,788.243)">
                <path d="M0.141,-0L0.141,-0.8L0.665,-0.8L0.665,-0.68L0.272,-0.68L0.272,-0.458L0.615,-0.458L0.615,-0.345L0.272,-0.345L0.272,-0.12L0.655,-0.12L0.655,-0L0.141,-0Z" style="fill-rule:nonzero;"/>
            </g>
            <g transform="matrix(95.6275,6.27838,-6.27838,95.6275,1806.58,781.495)">
                <path d="M0.129,-0L0.129,-0.8L0.445,-0.8C0.498,-0.8 0.544,-0.79 0.583,-0.771C0.622,-0.751 0.652,-0.723 0.674,-0.687C0.695,-0.651 0.706,-0.608 0.706,-0.559C0.706,-0.512 0.695,-0.47 0.674,-0.435C0.652,-0.399 0.622,-0.371 0.583,-0.352C0.544,-0.333 0.498,-0.323 0.445,-0.323L0.259,-0.323L0.259,-0L0.129,-0ZM0.259,-0.442L0.448,-0.442C0.487,-0.442 0.518,-0.452 0.541,-0.473C0.564,-0.494 0.575,-0.522 0.575,-0.559C0.575,-0.595 0.564,-0.623 0.541,-0.645C0.518,-0.666 0.487,-0.676 0.448,-0.676L0.259,-0.676L0.259,-0.442Z" style="fill-rule:nonzero;"/>
            </g>
            <g transform="matrix(93.6949,20.132,-20.132,93.6949,1949.61,795.526)">
                <path d="M0.129,-0L0.129,-0.8L0.445,-0.8C0.498,-0.8 0.544,-0.79 0.583,-0.771C0.622,-0.751 0.652,-0.723 0.674,-0.687C0.695,-0.651 0.706,-0.608 0.706,-0.559C0.706,-0.512 0.695,-0.47 0.674,-0.435C0.652,-0.399 0.622,-0.371 0.583,-0.352C0.544,-0.333 0.498,-0.323 0.445,-0.323L0.259,-0.323L0.259,-0L0.129,-0ZM0.259,-0.442L0.448,-0.442C0.487,-0.442 0.518,-0.452 0.541,-0.473C0.564,-0.494 0.575,-0.522 0.575,-0.559C0.575,-0.595 0.564,-0.623 0.541,-0.645C0.518,-0.666 0.487,-0.676 0.448,-0.676L0.259,-0.676L0.259,-0.442Z" style="fill-rule:nonzero;"/>
            </g>
            <g transform="matrix(89.7773,33.5272,-33.5272,89.7773,2089.13,830.365)">
                <path d="M0.141,-0L0.141,-0.8L0.665,-0.8L0.665,-0.68L0.272,-0.68L0.272,-0.458L0.615,-0.458L0.615,-0.345L0.272,-0.345L0.272,-0.12L0.655,-0.12L0.655,-0L0.141,-0Z" style="fill-rule:nonzero;"/>
            </g>
        </g>
        <g transform="matrix(1,0,0,1,-757.108,-662.318)">
            <g transform="matrix(67.5784,74.7647,-74.7647,67.5784,1143.97,2540.72)">
                <path d="M0.114,-0L0.114,-0.8L0.433,-0.8C0.485,-0.8 0.53,-0.79 0.569,-0.771C0.608,-0.752 0.638,-0.724 0.659,-0.689C0.68,-0.654 0.691,-0.612 0.691,-0.563C0.691,-0.518 0.68,-0.479 0.659,-0.445C0.637,-0.411 0.607,-0.385 0.568,-0.366C0.529,-0.347 0.484,-0.337 0.433,-0.337L0.245,-0.337L0.245,-0L0.114,-0ZM0.56,-0L0.329,-0.359L0.474,-0.359L0.711,-0L0.56,-0ZM0.245,-0.449L0.432,-0.449C0.471,-0.449 0.502,-0.46 0.525,-0.481C0.548,-0.501 0.56,-0.529 0.56,-0.563C0.56,-0.597 0.548,-0.624 0.525,-0.645C0.502,-0.666 0.471,-0.676 0.432,-0.676L0.245,-0.676L0.245,-0.449Z" style="fill-rule:nonzero;"/>
            </g>
            <g transform="matrix(75.4156,66.8512,-66.8512,75.4156,1225.16,2627.52)">
                <path d="M0.141,-0L0.141,-0.8L0.665,-0.8L0.665,-0.68L0.272,-0.68L0.272,-0.458L0.615,-0.458L0.615,-0.345L0.272,-0.345L0.272,-0.12L0.655,-0.12L0.655,-0L0.141,-0Z" style="fill-rule:nonzero;"/>
            </g>
            <g transform="matrix(82.3508,58.0942,-58.0942,82.3508,1315.49,2704.75)">
                <path d="M0.093,-0L0.093,-0.8L0.342,-0.8C0.458,-0.8 0.546,-0.766 0.607,-0.698C0.667,-0.63 0.697,-0.531 0.697,-0.4C0.697,-0.27 0.667,-0.171 0.607,-0.103C0.546,-0.034 0.458,-0 0.342,-0L0.093,-0ZM0.224,-0.123L0.342,-0.123C0.416,-0.123 0.472,-0.146 0.51,-0.193C0.547,-0.24 0.566,-0.309 0.566,-0.4C0.566,-0.492 0.547,-0.561 0.51,-0.608C0.472,-0.654 0.416,-0.677 0.342,-0.677L0.224,-0.677L0.224,-0.123Z" style="fill-rule:nonzero;"/>
            </g>
            <g transform="matrix(88.2438,48.6788,-48.6788,88.2438,1413.93,2771.41)">
                <path d="M0.075,-0L0.075,-0.8L0.277,-0.8L0.372,-0.351L0.384,-0.351L0.479,-0.8L0.675,-0.8L0.675,-0L0.555,-0L0.555,-0.459L0.561,-0.699L0.549,-0.699L0.458,-0.265L0.292,-0.265L0.201,-0.699L0.189,-0.699L0.195,-0.459L0.195,-0L0.075,-0Z" style="fill-rule:nonzero;"/>
            </g>
            <g transform="matrix(93.1585,38.4458,-38.4458,93.1585,1519.12,2826.66)">
                <path d="M0.375,0.017C0.27,0.017 0.19,-0.018 0.135,-0.089C0.08,-0.16 0.053,-0.263 0.053,-0.4C0.053,-0.537 0.08,-0.64 0.135,-0.711C0.19,-0.782 0.27,-0.817 0.375,-0.817C0.48,-0.817 0.56,-0.782 0.615,-0.711C0.67,-0.64 0.697,-0.537 0.697,-0.4C0.697,-0.263 0.67,-0.16 0.615,-0.089C0.56,-0.018 0.48,0.017 0.375,0.017ZM0.375,-0.106C0.44,-0.106 0.488,-0.13 0.519,-0.179C0.55,-0.227 0.566,-0.301 0.566,-0.4C0.566,-0.499 0.55,-0.573 0.519,-0.622C0.488,-0.67 0.44,-0.694 0.375,-0.694C0.31,-0.694 0.262,-0.67 0.231,-0.622C0.2,-0.573 0.184,-0.499 0.184,-0.4C0.184,-0.301 0.2,-0.227 0.231,-0.179C0.262,-0.13 0.31,-0.106 0.375,-0.106Z" style="fill-rule:nonzero;"/>
            </g>
            <g transform="matrix(96.9068,27.6705,-27.6705,96.9068,1630,2869.76)">
                <path d="M0.085,-0L0.085,-0.8L0.308,-0.8L0.536,-0.086L0.549,-0.086L0.543,-0.298L0.543,-0.8L0.665,-0.8L0.665,-0L0.442,-0L0.214,-0.714L0.201,-0.714L0.207,-0.502L0.207,-0L0.085,-0Z" style="fill-rule:nonzero;"/>
            </g>
            <g transform="matrix(99.4407,16.3752,-16.3752,99.4407,1744.87,2900.09)">
                <path d="M0.093,-0L0.093,-0.8L0.342,-0.8C0.458,-0.8 0.546,-0.766 0.607,-0.698C0.667,-0.63 0.697,-0.531 0.697,-0.4C0.697,-0.27 0.667,-0.171 0.607,-0.103C0.546,-0.034 0.458,-0 0.342,-0L0.093,-0ZM0.224,-0.123L0.342,-0.123C0.416,-0.123 0.472,-0.146 0.51,-0.193C0.547,-0.24 0.566,-0.309 0.566,-0.4C0.566,-0.492 0.547,-0.561 0.51,-0.608C0.472,-0.654 0.416,-0.677 0.342,-0.677L0.224,-0.677L0.224,-0.123Z" style="fill-rule:nonzero;"/>
            </g>
            <g transform="matrix(43.7192,-1.64239,1.64239,43.7192,1979.98,2891.78)">
                <path d="M0.375,-0.139C0.308,-0.139 0.256,-0.157 0.219,-0.194C0.182,-0.231 0.164,-0.283 0.164,-0.35C0.164,-0.417 0.182,-0.469 0.219,-0.506C0.256,-0.543 0.308,-0.561 0.375,-0.561C0.442,-0.561 0.494,-0.543 0.531,-0.506C0.568,-0.469 0.586,-0.417 0.586,-0.35C0.586,-0.283 0.568,-0.231 0.531,-0.194C0.494,-0.157 0.442,-0.139 0.375,-0.139Z" style="fill-rule:nonzero;"/>
            </g>
            <g transform="matrix(98.3753,-21.8837,21.8837,98.3753,2150.69,2903.64)">
                <path d="M0.375,0.017C0.27,0.017 0.19,-0.018 0.135,-0.089C0.08,-0.16 0.053,-0.263 0.053,-0.4C0.053,-0.537 0.08,-0.64 0.135,-0.711C0.19,-0.782 0.27,-0.817 0.375,-0.817C0.48,-0.817 0.56,-0.782 0.615,-0.711C0.67,-0.64 0.697,-0.537 0.697,-0.4C0.697,-0.263 0.67,-0.16 0.615,-0.089C0.56,-0.018 0.48,0.017 0.375,0.017ZM0.375,-0.106C0.44,-0.106 0.488,-0.13 0.519,-0.179C0.55,-0.227 0.566,-0.301 0.566,-0.4C0.566,-0.499 0.55,-0.573 0.519,-0.622C0.488,-0.67 0.44,-0.694 0.375,-0.694C0.31,-0.694 0.262,-0.67 0.231,-0.622C0.2,-0.573 0.184,-0.499 0.184,-0.4C0.184,-0.301 0.2,-0.227 0.231,-0.179C0.262,-0.13 0.31,-0.106 0.375,-0.106Z" style="fill-rule:nonzero;"/>
            </g>
            <g transform="matrix(95.1501,-33.2122,33.2122,95.1501,2266.35,2875.54)">
                <path d="M0.114,-0L0.114,-0.8L0.433,-0.8C0.485,-0.8 0.53,-0.79 0.569,-0.771C0.608,-0.752 0.638,-0.724 0.659,-0.689C0.68,-0.654 0.691,-0.612 0.691,-0.563C0.691,-0.518 0.68,-0.479 0.659,-0.445C0.637,-0.411 0.607,-0.385 0.568,-0.366C0.529,-0.347 0.484,-0.337 0.433,-0.337L0.245,-0.337L0.245,-0L0.114,-0ZM0.56,-0L0.329,-0.359L0.474,-0.359L0.711,-0L0.56,-0ZM0.245,-0.449L0.432,-0.449C0.471,-0.449 0.502,-0.46 0.525,-0.481C0.548,-0.501 0.56,-0.529 0.56,-0.563C0.56,-0.597 0.548,-0.624 0.525,-0.645C0.502,-0.666 0.471,-0.676 0.432,-0.676L0.245,-0.676L0.245,-0.449Z" style="fill-rule:nonzero;"/>
            </g>
            <g transform="matrix(90.8374,-43.6482,43.6482,90.8374,2377.9,2834.42)">
                <path d="M0.141,-0L0.141,-0.8L0.665,-0.8L0.665,-0.68L0.272,-0.68L0.272,-0.458L0.615,-0.458L0.615,-0.345L0.272,-0.345L0.272,-0.12L0.655,-0.12L0.655,-0L0.141,-0Z" style="fill-rule:nonzero;"/>
            </g>
            <g transform="matrix(85.5002,-53.3509,53.3509,85.5002,2483.98,2780.99)">
                <path d="M0.355,0.016C0.264,0.016 0.194,-0.02 0.143,-0.091C0.092,-0.162 0.067,-0.265 0.067,-0.4C0.067,-0.537 0.095,-0.64 0.15,-0.711C0.205,-0.782 0.286,-0.817 0.392,-0.817C0.45,-0.817 0.5,-0.806 0.543,-0.783C0.585,-0.76 0.618,-0.728 0.644,-0.686C0.669,-0.644 0.683,-0.594 0.688,-0.535L0.564,-0.535C0.553,-0.585 0.534,-0.624 0.506,-0.652C0.477,-0.68 0.439,-0.694 0.392,-0.694C0.327,-0.694 0.278,-0.67 0.246,-0.622C0.214,-0.573 0.198,-0.499 0.198,-0.4C0.198,-0.297 0.214,-0.222 0.245,-0.173C0.276,-0.124 0.325,-0.099 0.391,-0.099C0.421,-0.099 0.448,-0.107 0.473,-0.124C0.498,-0.141 0.517,-0.163 0.532,-0.192C0.546,-0.22 0.553,-0.251 0.553,-0.286L0.368,-0.286L0.368,-0.406L0.669,-0.406L0.669,-0L0.553,-0L0.553,-0.07L0.521,-0.07C0.509,-0.043 0.488,-0.022 0.459,-0.007C0.43,0.009 0.395,0.016 0.355,0.016Z" style="fill-rule:nonzero;"/>
            </g>
            <g transform="matrix(79.0231,-62.5455,62.5455,79.0231,2583.52,2716.04)">
                <path d="M0.375,0.017C0.27,0.017 0.19,-0.018 0.135,-0.089C0.08,-0.16 0.053,-0.263 0.053,-0.4C0.053,-0.537 0.08,-0.64 0.135,-0.711C0.19,-0.782 0.27,-0.817 0.375,-0.817C0.48,-0.817 0.56,-0.782 0.615,-0.711C0.67,-0.64 0.697,-0.537 0.697,-0.4C0.697,-0.263 0.67,-0.16 0.615,-0.089C0.56,-0.018 0.48,0.017 0.375,0.017ZM0.375,-0.106C0.44,-0.106 0.488,-0.13 0.519,-0.179C0.55,-0.227 0.566,-0.301 0.566,-0.4C0.566,-0.499 0.55,-0.573 0.519,-0.622C0.488,-0.67 0.44,-0.694 0.375,-0.694C0.31,-0.694 0.262,-0.67 0.231,-0.622C0.2,-0.573 0.184,-0.499 0.184,-0.4C0.184,-0.301 0.2,-0.227 0.231,-0.179C0.262,-0.13 0.31,-0.106 0.375,-0.106Z" style="fill-rule:nonzero;"/>
            </g>
            <g transform="matrix(71.5665,-70.9565,70.9565,71.5665,2675.25,2640.36)">
                <path d="M0.085,-0L0.085,-0.8L0.308,-0.8L0.536,-0.086L0.549,-0.086L0.543,-0.298L0.543,-0.8L0.665,-0.8L0.665,-0L0.442,-0L0.214,-0.714L0.201,-0.714L0.207,-0.502L0.207,-0L0.085,-0Z" style="fill-rule:nonzero;"/>
            </g>
        </g>
        <path d="M2215,1170.3L2244.7,1200L2215,1229.7L2185.3,1200L2215,1170.3Z" style="fill:rgb(23,19,15);"/>
        <path d="M185,1170.3L214.698,1200L185,1229.7L155.302,1200L185,1170.3Z" style="fill:rgb(23,19,15);"/>
        <circle cx="1200" cy="1200" r="886" style="fill:none;"/>
        <clipPath id="_clip2">
            <circle cx="1200" cy="1200" r="886"/>
        </clipPath>
        <g clip-path="url(#_clip2)">
            <clipPath id="_clip3">
                <rect x="296.311" y="787.572" width="1789.69" height="243.731"/>
            </clipPath>
            <g clip-path="url(#_clip3)">
                <path d="M2086,1007.38C2088.84,924.99 2091.26,813.528 2057.43,771.231C1633.5,241.171 563.978,316.098 358.129,723.881C321.364,796.711 288.776,914.032 297.843,985.986C300.199,1004.68 305.365,1020.31 314,1031.3C314,1031.3 625.916,1024.67 706.566,1022.02C742.302,1020.84 864.191,1017.59 953.194,1018.5C968.549,1018.66 970.82,1020.39 1176.8,1012.15C1179.37,1012.05 1191.82,1010.99 1221.46,1009.93C1246.57,1009.04 1224.04,1010.26 1272.9,1009.45C1285.15,984.75 1285.97,984.503 1308.29,934.073C1316.63,915.222 1307.59,935.315 1335.15,868.248C1338.05,861.186 1348.44,833.852 1355.94,812.685C1359.96,801.355 1371.16,809.509 1383.19,810.503C1407.13,812.481 1626.11,824.867 1685,810.144C1695.83,807.435 1695.1,806.063 1705.69,803.704C1714.45,816.845 1706.74,803.998 1720.82,828.732C1735.28,854.148 1748.71,879.585 1776.4,923.545C1794.1,951.644 1796.11,955.46 1816.99,987.388C1820.28,992.418 1824.14,1005.8 1835.16,1004.98C1838.37,1004.75 2085.85,1011.69 2086,1007.38Z" style="fill:none;stroke:black;stroke-width:13px;"/>
            </g>
            <clipPath id="_clip4">
                <rect x="314" y="1131.2" width="1790.78" height="68.803"/>
            </clipPath>
            <g clip-path="url(#_clip4)">
                <path d="M320.731,1343.42C404.73,1305.93 528.787,1339.89 611.912,1329.51C714.473,1316.68 880.754,1418.49 1102.75,1359.3C1116.59,1355.6 1338.15,1346.42 1366.61,1347.95C1492.21,1354.68 1505.69,1362.32 1628.37,1337.79C1648.3,1333.8 1780.37,1305.11 1922.88,1290.11C1948.38,1287.43 2023.03,1268.39 2073.66,1273.16C2116.26,1277.18 2104,1230.38 2100.2,1185.07C2098.22,1161.48 2100.91,1140.93 2086,1139.5C2024.53,1133.6 1976.3,1131.29 1940.58,1131.2C1771.61,1130.81 1783.75,1149.32 1717.19,1146.96C1677.9,1145.56 1507.12,1157.5 1399.15,1165.68C1309.85,1172.46 1230.94,1160.7 1225.14,1160.54C1123.47,1157.72 1030.66,1175.76 963.627,1173.91C879.314,1171.59 824.212,1171.65 756.823,1167.25C626.51,1158.74 565.713,1181.7 491.698,1185.87C365.311,1192.99 345.36,1165.94 314,1162.72" style="fill:none;stroke:black;stroke-width:9px;"/>
            </g>
            <clipPath id="_clip5">
                <rect x="314" y="1268.8" width="1777.47" height="136.018"/>
            </clipPath>
            <g clip-path="url(#_clip5)">
                <path d="M343.448,1489.02C412.356,1516.23 775.578,1461.46 879.679,1486.9C1254.88,1578.62 1260.59,1462.93 1643.95,1496.9C1858.98,1515.96 2081.89,1482.86 2086,1430.3C2086.64,1422.09 2097.97,1274.36 2086,1269.87C2076.11,1266.16 2009.75,1273.26 1957.52,1273.35C1907.98,1273.44 1847.49,1264.92 1788.48,1271.24C1675.96,1283.3 1563.91,1314.09 1508.89,1314.09C1297.02,1314.09 1278.03,1288.02 1083.62,1302.31C815.81,1322 825.794,1289.73 526.83,1316.91C400.859,1328.36 414.249,1318.68 314,1317.52" style="fill:none;stroke:black;stroke-width:9px;"/>
            </g>
            <clipPath id="_clip6">
                <rect x="340.825" y="1456.32" width="1785.16" height="112.02"/>
            </clipPath>
            <g clip-path="url(#_clip6)">
                <path d="M340.825,1479.24C432.785,1512.55 673.315,1425.34 890.014,1468.68C1032.17,1497.11 1126.91,1483.64 1202.73,1476.27C1337.34,1463.18 1416.2,1475.82 1642.7,1494.65C1871.67,1513.69 1957.98,1434.03 2104.78,1462.7C2159.31,1473.35 2091.47,1575.94 2091.47,1575.94C2078.82,1604.59 2074.28,1643.12 2040.7,1643.01C1984.99,1642.81 1896.41,1653.02 1832.14,1642.65C1400.58,1573.04 1388.7,1702.52 1051.94,1642.65C780.532,1594.4 441.958,1634.51 390.845,1613.21" style="fill:none;stroke:black;stroke-width:9px;"/>
            </g>
            <clipPath id="_clip7">
                <rect x="389.103" y="1589.93" width="1636.91" height="95.696"/>
            </clipPath>
            <g clip-path="url(#_clip7)">
                <path d="M428.316,1606.52C657.382,1644.69 652.932,1586.27 884.047,1605.14C997.797,1614.42 1003.12,1615.67 1117.52,1627.93C1386.36,1656.73 1411.11,1585.41 1593.94,1615.88C1602.68,1617.34 1672.28,1626.35 1767.91,1630.66C1888.53,1636.1 1917.69,1605.81 2008.44,1626.3C2055.16,1636.85 1996.97,1632.95 1969.99,1673.43C1941.89,1715.58 1930.56,1783.05 1822.5,1767.62C1769.63,1760.07 1694.81,1783.53 1583.95,1785.79C1525.62,1786.97 1454.98,1779.34 1375.16,1778.82C1301.44,1778.35 1214.73,1789.52 1119.76,1787.05C1068.53,1785.72 897.302,1765.15 720.215,1754.53C602.731,1747.48 469.598,1764.69 453.334,1732.29C444.217,1714.12 422.638,1649.82 400.052,1612.43C370.392,1563.32 408.214,1610.54 428.316,1606.52Z" style="fill:none;stroke:black;stroke-width:9px;"/>
            </g>
            <clipPath id="_clip8">
                <rect x="476.374" y="1731.26" width="1443.17" height="65.308"/>
            </clipPath>
            <g clip-path="url(#_clip8)">
                <path d="M492.131,1750.22C675.063,1729.13 782.832,1722.2 877.786,1747.38C963.931,1770.23 1063.14,1783.57 1233.4,1770.06C1327.98,1762.55 1394.66,1752.13 1446.57,1751.71C1532.68,1751.01 1581.65,1763.28 1675.57,1755.06C1899.53,1735.47 1920.8,1729.26 1919.5,1747.5C1918.58,1760.36 1857.09,1863.09 1749.17,1910.3C1654.24,1951.83 1637.12,2039.83 1306.21,2094.98C1220.02,2109.35 959.65,2088.98 923.471,2070.89C779.89,1999.1 779.105,2001.95 661.173,1922.35C646.482,1912.43 590.087,1896.33 562.142,1835.36C555.656,1821.21 472.804,1755.43 476.494,1744.36" style="fill:none;stroke:black;stroke-width:9px;"/>
            </g>
        </g>
        <circle cx="874" cy="720" r="108" style="fill:none;stroke:black;stroke-width:10px;"/>
        <path d="M481.842,1532.87C505.238,1531.85 518.279,1532.28 538.588,1531.71" style="fill:none;stroke:black;stroke-width:7px;"/>
        <path d="M837.769,1529.51C855.936,1529.82 874.102,1530.13 892.268,1530.44" style="fill:none;stroke:black;stroke-width:7px;"/>
        <path d="M896.492,1507.51C915.367,1507.77 934.242,1508.02 953.117,1508.27" style="fill:none;stroke:black;stroke-width:7px;"/>
        <path d="M1129.56,1531.55L1168.74,1531.71" style="fill:none;stroke:black;stroke-width:7px;"/>
        <path d="M1161.03,1509.23C1187.31,1508.78 1213.59,1508.34 1239.87,1507.89" style="fill:none;stroke:black;stroke-width:7px;"/>
        <path d="M1504.75,1565.42C1532.61,1565.79 1534.18,1565.79 1561.94,1566.3" style="fill:none;stroke:black;stroke-width:7px;"/>
        <path d="M1540.9,1582.51C1556.11,1582.69 1571.32,1582.87 1586.53,1583.05" style="fill:none;stroke:black;stroke-width:7px;"/>
        <path d="M1772.03,1582.88C1805.73,1582.31 1806.03,1582.42 1849.4,1583.11" style="fill:none;stroke:black;stroke-width:7px;"/>
        <path d="M476.681,1269.94L476.494,1271.95" style="fill:none;stroke:black;stroke-width:8px;"/>
        <path d="M483.251,1234.67L480.508,1234.48" style="fill:none;stroke:black;stroke-width:8px;"/>
        <path d="M511.843,1274.02L511.288,1274.63" style="fill:none;stroke:black;stroke-width:8px;"/>
        <path d="M684.105,1228.65L679.908,1230.47" style="fill:none;stroke:black;stroke-width:8px;"/>
        <path d="M613.424,1241.94L611.657,1241.17" style="fill:none;stroke:black;stroke-width:8px;"/>
        <path d="M1020.99,1254.88L1019.83,1257.23" style="fill:none;stroke:black;stroke-width:8px;"/>
        <path d="M1027.38,1209.68L1025.18,1209.06" style="fill:none;stroke:black;stroke-width:8px;"/>
        <path d="M1367.29,1241.23L1367.77,1241.17" style="fill:none;stroke:black;stroke-width:8px;"/>
        <path d="M1185.26,1229.71L1184.43,1230.47" style="fill:none;stroke:black;stroke-width:8px;"/>
        <path d="M1597.8,1247.08L1597.95,1246.53" style="fill:none;stroke:black;stroke-width:8px;"/>
        <path d="M1636.16,1191.25L1634.08,1190.32" style="fill:none;stroke:black;stroke-width:8px;"/>
        <path d="M1771.84,1212.17L1767.91,1213.07" style="fill:none;stroke:black;stroke-width:8px;"/>
        <path d="M1920.66,1169.63L1920.47,1167.57" style="fill:none;stroke:black;stroke-width:8px;"/>
        <path d="M1922.61,1234.5L1924.49,1231.81" style="fill:none;stroke:black;stroke-width:10px;"/>
        <path d="M421.095,1251.33L418.949,1249.2" style="fill:none;stroke:black;stroke-width:10px;"/>
        <path d="M613.779,1267.11L614.334,1269.28" style="fill:none;stroke:black;stroke-width:10px;"/>
        <path d="M611.648,1201L608.981,1199.69" style="fill:none;stroke:black;stroke-width:10px;"/>
        <path d="M795.453,1221.03L799.013,1217.09" style="fill:none;stroke:black;stroke-width:10px;"/>
        <path d="M818.184,1250.8L817.748,1250.54" style="fill:none;stroke:black;stroke-width:10px;"/>
        <path d="M913.195,1200.29L910.088,1202.36" style="fill:none;stroke:black;stroke-width:10px;"/>
        <path d="M884.958,1238.39L880.646,1238.5" style="fill:none;stroke:black;stroke-width:10px;"/>
        <path d="M1070.72,1235.38L1069.34,1235.82" style="fill:none;stroke:black;stroke-width:10px;"/>
        <path d="M1345.98,1268.17L1345.02,1267.94" style="fill:none;stroke:black;stroke-width:10px;"/>
        <path d="M1363.2,1243.36L1362.42,1241.17" style="fill:none;stroke:black;stroke-width:10px;"/>
        <path d="M1395.35,1249.74L1391.86,1249.2" style="fill:none;stroke:black;stroke-width:10px;"/>
        <path d="M1409.2,1267.99L1407.92,1267.94" style="fill:none;stroke:black;stroke-width:10px;"/>
        <path d="M1407.07,1269.59L1403.9,1266.6" style="fill:none;stroke:black;stroke-width:10px;"/>
        <path d="M1515.22,1268.17L1514.98,1267.94" style="fill:none;stroke:black;stroke-width:10px;"/>
        <path d="M1570.27,1241.59L1567.17,1242.51" style="fill:none;stroke:black;stroke-width:10px;"/>
        <path d="M1484.68,1197.28L1484.2,1195.67" style="fill:none;stroke:black;stroke-width:10px;"/>
        <path d="M1143.17,1179.38L1142.94,1179.61" style="fill:none;stroke:black;stroke-width:10px;"/>
        <path d="M1719.98,1249.91L1722.41,1247.86" style="fill:none;stroke:black;stroke-width:10px;"/>
        <path d="M1743.42,1240.52L1739.81,1242.51" style="fill:none;stroke:black;stroke-width:10px;"/>
        <path d="M1786.58,1170.87L1786.64,1170.25" style="fill:none;stroke:black;stroke-width:10px;"/>
        <path d="M2010.16,1191.96L2006.12,1193" style="fill:none;stroke:black;stroke-width:13px;"/>
        <path d="M561.391,1263.21L559.465,1265.26" style="fill:none;stroke:black;stroke-width:13px;"/>
        <path d="M554.642,1213.76L552.774,1211.73" style="fill:none;stroke:black;stroke-width:13px;"/>
        <path d="M930.598,1266.57L930.162,1265.26" style="fill:none;stroke:black;stroke-width:13px;"/>
        <path d="M1351.31,1226.88L1347.7,1221.1" style="fill:none;stroke:black;stroke-width:13px;"/>
        <path d="M1532.27,1187.18L1532.38,1187.64" style="fill:none;stroke:black;stroke-width:13px;"/>
        <path d="M1551.81,1183.63L1555.13,1180.95" style="fill:none;stroke:black;stroke-width:13px;"/>
        <path d="M1830.27,1184.52L1832.14,1183.63" style="fill:none;stroke:black;stroke-width:13px;"/>
        <path d="M1853.17,1184.16L1852.22,1183.63" style="fill:none;stroke:black;stroke-width:13px;"/>
        <path d="M1830.8,1165.73L1830.81,1160.88" style="fill:none;stroke:black;stroke-width:13px;"/>
        <path d="M1680.02,1207.2L1679.58,1206.38" style="fill:none;stroke:black;stroke-width:13px;"/>
        <path d="M1133.94,1257.18L1129.56,1257.23" style="fill:none;stroke:black;stroke-width:13px;"/>
        <path d="M1263.76,1195.86L1263.39,1197.01" style="fill:none;stroke:black;stroke-width:11px;"/>
        <path d="M353.078,1212.17L350.698,1209.06" style="fill:none;stroke:black;stroke-width:11px;"/>
        <path d="M538.837,1228.29L532.7,1227.79" style="fill:none;stroke:black;stroke-width:11px;"/>
        <path d="M564.41,1230.78L560.804,1230.47" style="fill:none;stroke:black;stroke-width:11px;"/>
        <path d="M703.462,1180.44L699.982,1179.61" style="fill:none;stroke:black;stroke-width:11px;"/>
        <path d="M726.904,1224.57L726.747,1225.11" style="fill:none;stroke:black;stroke-width:11px;"/>
        <path d="M1293.06,1263.03L1292.83,1258.57" style="fill:none;stroke:black;stroke-width:7px;"/>
        <path d="M1276,52C1276.45,52.032 1276.45,52.032 1278.73,52.191C1373.2,58.864 1466.05,76.845 1768.08,199.317C1770.64,200.793 1773.21,202.259 1775.79,203.719C1797.39,215.98 1818.13,229.373 1838.81,243.125C1839.64,243.672 1840.46,244.219 1841.31,244.783C1856.44,254.845 1871.43,265.077 1885.81,276.188C1887.6,277.56 1889.39,278.933 1891.18,280.305C1891.6,280.625 1891.6,280.625 1893.71,282.245C1896.6,284.458 1899.52,286.639 1902.44,288.813C1912.53,296.365 1922.34,304.206 1931.93,312.391C1934.71,314.763 1937.53,317.074 1940.38,319.375C1950.12,327.314 1959.59,335.581 1968.79,344.134C1971.4,346.555 1974.05,348.921 1976.74,351.254C1990.46,363.251 2003.33,376.165 2016.19,389.064C2018.6,391.48 2021.02,393.891 2023.43,396.301C2025.33,398.192 2027.22,400.086 2029.12,401.981C2030,402.871 2030.89,403.761 2031.79,404.649C2036.52,409.372 2041.12,414.148 2045.47,419.231C2048.17,422.351 2051.04,425.318 2053.88,428.313C2058.77,433.514 2063.4,438.809 2067.86,444.391C2070.15,447.185 2072.55,449.846 2075,452.5C2079.51,457.389 2083.73,462.458 2087.9,467.638C2089.71,469.877 2091.55,472.092 2093.38,474.313C2108.95,493.325 2123.77,512.971 2138,533C2138.53,533.744 2139.07,534.489 2139.61,535.256C2183.4,596.542 2220.91,662.758 2288,824C2288.12,824.356 2288.12,824.356 2288.76,826.16C2302.51,865.377 2313.86,905.463 2323,946C2323.17,946.741 2323.34,947.483 2323.51,948.247C2336.67,1006.45 2344.83,1065.5 2349,1125C2349.06,1125.85 2349.12,1126.7 2349.18,1127.57C2352.66,1176.74 2352.51,1226.85 2349,1276C2348.94,1276.9 2348.87,1277.8 2348.81,1278.73C2342.14,1373.2 2324.16,1466.05 2201.68,1768.08C2200.21,1770.64 2198.74,1773.21 2197.28,1775.79C2185.02,1797.39 2171.63,1818.13 2157.88,1838.81C2157.6,1839.22 2157.6,1839.22 2156.22,1841.31C2146.16,1856.44 2135.92,1871.43 2124.81,1885.81C2123.44,1887.6 2122.07,1889.39 2120.7,1891.18C2120.05,1892.01 2119.41,1892.85 2118.76,1893.71C2116.54,1896.6 2114.36,1899.52 2112.19,1902.44C2104.64,1912.53 2096.79,1922.34 2088.61,1931.93C2086.24,1934.71 2083.93,1937.53 2081.62,1940.38C2073.69,1950.12 2065.42,1959.59 2056.87,1968.79C2054.45,1971.4 2052.08,1974.05 2049.75,1976.74C2037.75,1990.46 2024.84,2003.33 2011.94,2016.19C2009.52,2018.6 2007.11,2021.02 2004.7,2023.43C2002.81,2025.33 2000.91,2027.22 1999.02,2029.12C1998.13,2030 1997.24,2030.89 1996.35,2031.79C1991.63,2036.52 1986.85,2041.12 1981.77,2045.47C1978.65,2048.17 1975.68,2051.04 1972.69,2053.88C1967.49,2058.77 1962.19,2063.4 1956.61,2067.86C1953.82,2070.15 1951.15,2072.55 1948.5,2075C1943.61,2079.51 1938.54,2083.73 1933.36,2087.9C1931.12,2089.71 1928.91,2091.55 1926.69,2093.38C1907.67,2108.95 1888.03,2123.77 1868,2138C1867.26,2138.53 1866.51,2139.07 1865.74,2139.61C1804.46,2183.4 1738.24,2220.91 1577,2288C1576.64,2288.12 1576.64,2288.12 1574.84,2288.76C1535.62,2302.51 1495.54,2313.86 1455,2323C1454.26,2323.17 1453.52,2323.34 1452.75,2323.51C1394.55,2336.67 1335.5,2344.83 1276,2349C1275.15,2349.06 1274.3,2349.12 1273.43,2349.18C1224.27,2352.66 1174.15,2352.51 1125,2349C1124.1,2348.94 1123.2,2348.87 1122.27,2348.81C1027.8,2342.14 934.948,2324.16 632.925,2201.68C630.36,2200.21 627.789,2198.74 625.215,2197.28C603.613,2185.02 582.865,2171.63 562.188,2157.88C561.776,2157.6 561.776,2157.6 559.692,2156.22C544.562,2146.16 529.571,2135.92 515.188,2124.81C513.399,2123.44 511.61,2122.07 509.82,2120.7C508.987,2120.05 508.153,2119.41 507.294,2118.76C504.401,2116.54 501.485,2114.36 498.563,2112.19C488.473,2104.64 478.657,2096.79 469.074,2088.61C466.292,2086.24 463.467,2083.93 460.625,2081.62C450.885,2073.69 441.412,2065.42 432.207,2056.87C429.599,2054.45 426.952,2052.08 424.265,2049.75C410.541,2037.75 397.674,2024.84 384.806,2011.94C382.396,2009.52 379.981,2007.11 377.565,2004.7C375.67,2002.81 373.777,2000.91 371.885,1999.02C370.996,1998.13 370.105,1997.24 369.214,1996.35C364.481,1991.63 359.878,1986.85 355.531,1981.77C352.83,1978.65 349.964,1975.68 347.125,1972.69C342.229,1967.49 337.6,1962.19 333.141,1956.61C330.849,1953.82 328.451,1951.15 326,1948.5C321.494,1943.61 317.266,1938.54 313.1,1933.36C311.292,1931.12 309.455,1928.91 307.625,1926.69C292.053,1907.67 277.234,1888.03 263,1868C262.734,1867.63 262.734,1867.63 261.387,1865.74C217.603,1804.46 180.087,1738.24 113,1577C112.75,1576.29 112.5,1575.57 112.242,1574.84C98.491,1535.62 87.143,1495.54 78,1455C77.832,1454.26 77.664,1453.52 77.491,1452.75C64.327,1394.55 56.172,1335.5 52,1276C51.939,1275.15 51.879,1274.3 51.816,1273.43C48.344,1224.27 48.493,1174.15 52,1125C52.032,1124.55 52.032,1124.55 52.191,1122.27C58.864,1027.8 76.845,934.948 199.317,632.925C200.793,630.36 202.259,627.789 203.719,625.215C215.98,603.613 229.373,582.865 243.125,562.188C243.672,561.364 244.219,560.54 244.783,559.692C254.845,544.562 265.077,529.571 276.188,515.188C277.56,513.399 278.933,511.61 280.305,509.82C280.945,508.987 281.585,508.153 282.245,507.294C284.458,504.401 286.639,501.485 288.813,498.563C296.365,488.473 304.206,478.657 312.391,469.074C314.763,466.292 317.074,463.467 319.375,460.625C327.314,450.885 335.581,441.412 344.134,432.207C346.555,429.599 348.921,426.952 351.254,424.265C363.251,410.541 376.165,397.674 389.064,384.806C391.48,382.396 393.891,379.981 396.301,377.565C398.192,375.67 400.086,373.777 401.981,371.885C402.871,370.996 403.761,370.105 404.649,369.214C409.372,364.481 414.148,359.878 419.231,355.531C422.351,352.83 425.318,349.964 428.313,347.125C433.514,342.229 438.809,337.6 444.391,333.141C447.185,330.849 449.846,328.451 452.5,326C457.389,321.494 462.458,317.266 467.638,313.1C469.877,311.292 472.092,309.455 474.313,307.625C493.325,292.053 512.971,277.234 533,263C533.744,262.468 534.489,261.935 535.256,261.387C596.542,217.603 662.758,180.087 824,113C824.713,112.75 825.426,112.5 826.16,112.242C865.377,98.491 905.463,87.143 946,78C946.741,77.832 947.483,77.664 948.247,77.491C1006.45,64.327 1065.5,56.172 1125,52C1125.85,51.939 1126.7,51.879 1127.57,51.816C1176.74,48.344 1226.85,48.493 1276,52ZM1125,69C1124.11,69.063 1123.22,69.126 1122.31,69.191C1028.02,75.959 934.653,94.055 649.501,209.568C646.273,211.416 643.004,213.181 639.73,214.946C619.929,225.631 600.752,237.577 582,250C581.201,250.526 580.402,251.053 579.579,251.595C547.53,272.713 516.319,295.18 486.696,319.604C485.144,320.881 483.588,322.151 482.027,323.418C475.512,328.715 469.088,334.114 462.696,339.559C460.998,341.002 459.294,342.439 457.59,343.875C450.011,350.286 442.701,356.935 435.477,363.742C432.567,366.481 429.612,369.158 426.625,371.813C422.729,375.289 419.032,378.915 415.398,382.664C413.422,384.589 411.414,386.386 409.324,388.184C404.481,392.389 399.961,396.892 395.438,401.438C394.626,402.245 393.815,403.053 392.979,403.885C388.663,408.207 384.522,412.612 380.539,417.242C378.462,419.615 376.26,421.8 374,424C370.492,427.456 367.168,431.007 363.969,434.75C361.922,437.089 359.815,439.361 357.694,441.632C352.623,447.062 347.796,452.595 343.145,458.387C341.001,460.998 338.776,463.504 336.5,466C332.256,470.669 328.247,475.501 324.288,480.412C322.892,482.133 321.482,483.842 320.07,485.551C312.046,495.292 304.434,505.304 296.912,515.436C295.022,517.971 293.117,520.495 291.207,523.016C265.512,556.952 242.341,592.696 220.903,629.452C220.059,630.899 219.213,632.346 218.368,633.792C197.059,670.331 177.797,708.181 161,747C160.701,747.691 160.402,748.381 160.094,749.093C149.868,772.751 140.63,796.717 132,821C131.722,821.779 131.444,822.558 131.158,823.36C99.551,912.023 80.014,1004.5 69,1125C68.974,1125.38 68.974,1125.38 68.842,1127.28C65.435,1176.55 65.45,1226.73 69,1276C69.032,1276.44 69.032,1276.44 69.191,1278.69C75.959,1372.99 94.055,1466.35 209.568,1751.5C211.416,1754.73 213.181,1758 214.946,1761.27C225.631,1781.07 237.577,1800.25 250,1819C250.526,1819.8 251.053,1820.6 251.595,1821.42C272.713,1853.47 295.18,1884.68 319.604,1914.3C320.881,1915.86 322.151,1917.41 323.418,1918.97C328.715,1925.49 334.114,1931.91 339.559,1938.3C341.002,1940 342.439,1941.71 343.875,1943.41C350.286,1950.99 356.935,1958.3 363.742,1965.52C366.481,1968.43 369.158,1971.39 371.813,1974.38C375.289,1978.27 378.915,1981.97 382.664,1985.6C384.589,1987.58 386.386,1989.59 388.184,1991.68C392.389,1996.52 396.892,2001.04 401.438,2005.56C401.841,2005.97 401.841,2005.97 403.885,2008.02C408.207,2012.34 412.612,2016.48 417.242,2020.46C419.615,2022.54 421.8,2024.74 424,2027C427.456,2030.51 431.007,2033.83 434.75,2037.03C437.089,2039.08 439.361,2041.18 441.632,2043.31C447.062,2048.38 452.595,2053.2 458.387,2057.86C460.998,2060 463.504,2062.22 466,2064.5C470.669,2068.74 475.501,2072.75 480.412,2076.71C482.133,2078.11 483.842,2079.52 485.551,2080.93C495.292,2088.95 505.304,2096.57 515.436,2104.09C517.971,2105.98 520.495,2107.88 523.016,2109.79C556.952,2135.49 592.696,2158.66 629.452,2180.1C630.899,2180.94 632.346,2181.79 633.792,2182.63C670.331,2203.94 708.181,2223.2 747,2240C747.345,2240.15 747.345,2240.15 749.093,2240.91C772.751,2251.13 796.717,2260.37 821,2269C821.389,2269.14 821.389,2269.14 823.36,2269.84C912.023,2301.45 1004.5,2320.99 1125,2332C1125.75,2332.05 1126.5,2332.1 1127.28,2332.16C1176.55,2335.57 1226.73,2335.55 1276,2332C1276.89,2331.94 1277.78,2331.87 1278.69,2331.81C1372.99,2325.04 1466.35,2306.95 1751.5,2191.43C1754.73,2189.58 1758,2187.82 1761.27,2186.05C1781.07,2175.37 1800.25,2163.42 1819,2151C1819.8,2150.47 1820.6,2149.95 1821.42,2149.41C1853.47,2128.29 1884.68,2105.82 1914.3,2081.4C1915.86,2080.12 1917.41,2078.85 1918.97,2077.58C1925.49,2072.28 1931.91,2066.89 1938.3,2061.44C1940,2060 1941.71,2058.56 1943.41,2057.12C1950.99,2050.71 1958.3,2044.07 1965.52,2037.26C1968.43,2034.52 1971.39,2031.84 1974.38,2029.19C1978.27,2025.71 1981.97,2022.09 1985.6,2018.34C1987.58,2016.41 1989.59,2014.61 1991.68,2012.82C1996.52,2008.61 2001.04,2004.11 2005.56,1999.56C2006.37,1998.76 2007.18,1997.95 2008.02,1997.12C2012.34,1992.79 2016.48,1988.39 2020.46,1983.76C2022.54,1981.38 2024.74,1979.2 2027,1977C2030.51,1973.54 2033.83,1969.99 2037.03,1966.25C2039.08,1963.91 2041.18,1961.64 2043.31,1959.37C2048.38,1953.94 2053.2,1948.4 2057.86,1942.61C2060,1940 2062.22,1937.5 2064.5,1935C2068.74,1930.33 2072.75,1925.5 2076.71,1920.59C2078.11,1918.87 2079.52,1917.16 2080.93,1915.45C2088.95,1905.71 2096.57,1895.7 2104.09,1885.56C2105.98,1883.03 2107.88,1880.51 2109.79,1877.98C2135.49,1844.05 2158.66,1808.3 2180.1,1771.55C2180.94,1770.1 2181.79,1768.65 2182.63,1767.21C2203.94,1730.67 2223.2,1692.82 2240,1654C2240.15,1653.65 2240.15,1653.65 2240.91,1651.91C2251.13,1628.25 2260.37,1604.28 2269,1580C2269.28,1579.22 2269.56,1578.44 2269.84,1577.64C2301.45,1488.98 2320.99,1396.51 2332,1276C2332.05,1275.25 2332.1,1274.5 2332.16,1273.73C2335.57,1224.45 2335.55,1174.27 2332,1125C2331.94,1124.11 2331.87,1123.22 2331.81,1122.31C2325.04,1028.02 2306.95,934.653 2191.43,649.501C2189.58,646.273 2187.82,643.004 2186.05,639.73C2175.37,619.929 2163.42,600.752 2151,582C2150.47,581.201 2149.95,580.402 2149.41,579.579C2128.29,547.53 2105.82,516.319 2081.4,486.696C2080.12,485.144 2078.85,483.588 2077.58,482.027C2072.28,475.512 2066.89,469.088 2061.44,462.696C2060,460.998 2058.56,459.294 2057.12,457.59C2050.71,450.011 2044.07,442.701 2037.26,435.477C2034.52,432.567 2031.84,429.612 2029.19,426.625C2025.71,422.729 2022.09,419.032 2018.34,415.398C2016.41,413.422 2014.61,411.414 2012.82,409.324C2008.61,404.481 2004.11,399.961 1999.56,395.438C1999.16,395.032 1999.16,395.032 1997.12,392.979C1992.79,388.663 1988.39,384.522 1983.76,380.539C1981.38,378.462 1979.2,376.26 1977,374C1973.54,370.492 1969.99,367.168 1966.25,363.969C1963.91,361.922 1961.64,359.815 1959.37,357.694C1953.94,352.623 1948.4,347.796 1942.61,343.145C1940,341.001 1937.5,338.776 1935,336.5C1930.33,332.256 1925.5,328.247 1920.59,324.288C1918.87,322.892 1917.16,321.482 1915.45,320.07C1905.71,312.046 1895.7,304.434 1885.56,296.912C1883.03,295.022 1880.51,293.117 1877.98,291.207C1844.05,265.512 1808.3,242.341 1771.55,220.903C1770.1,220.059 1768.65,219.213 1767.21,218.368C1730.67,197.059 1692.82,177.798 1654,161C1653.31,160.701 1652.62,160.402 1651.91,160.094C1628.25,149.868 1604.28,140.63 1580,132C1579.22,131.722 1578.44,131.444 1577.64,131.158C1488.98,99.551 1396.51,80.014 1276,69C1275.62,68.974 1275.62,68.974 1273.73,68.842C1224.45,65.435 1174.27,65.45 1125,69Z" style="fill-rule:nonzero;"/>
        <path d="M1275,96C1275.88,96.066 1276.76,96.131 1277.66,96.199C1367.43,102.978 1455.9,119.752 1676.29,201.184C1678.55,202.263 1680.82,203.333 1683.08,204.402C1696.23,210.615 1709.22,217.066 1722,224C1723.06,224.573 1724.12,225.145 1725.18,225.717C1742.38,234.997 1759.21,244.771 1775.83,255.044C1778.74,256.841 1781.66,258.622 1784.58,260.398C1817.72,280.624 1849.31,303.248 1880,327C1880.6,327.465 1881.2,327.929 1881.82,328.408C1899.32,341.963 1916.39,356.12 1932.78,370.996C1934.79,372.813 1936.83,374.599 1938.88,376.375C1943.75,380.625 1948.5,385.002 1953.25,389.387C1954.38,390.427 1955.51,391.466 1956.64,392.504C1966.56,401.631 1976.18,411.026 1985.7,420.57C1988.02,422.897 1990.35,425.218 1992.68,427.539C1994.18,429.044 1995.68,430.549 1997.19,432.055C1997.87,432.735 1998.55,433.415 1999.26,434.116C2003.16,438.038 2006.87,442.068 2010.49,446.255C2012.16,448.184 2013.88,450.051 2015.65,451.895C2015.95,452.214 2015.95,452.214 2017.49,453.833C2018.11,454.486 2018.74,455.14 2019.38,455.813C2024.46,461.189 2029.28,466.639 2033.89,472.426C2036.17,475.211 2038.56,477.858 2041,480.5C2044.99,484.829 2048.77,489.288 2052.47,493.871C2054.37,496.237 2056.31,498.577 2058.25,500.91C2065.01,509.017 2071.53,517.232 2077.81,525.715C2080.12,528.838 2082.47,531.927 2084.85,535.004C2092.53,544.961 2099.91,555.033 2106.93,565.465C2109.38,569.105 2111.9,572.687 2114.46,576.252C2122.09,586.887 2129.06,597.907 2136,609C2136.55,609.872 2137.1,610.743 2137.66,611.642C2162.86,651.733 2185.87,693.354 2205.41,736.5C2206.73,739.413 2208.07,742.319 2209.4,745.224C2234.76,800.347 2255.03,858.158 2270.43,916.826C2271,918.998 2271.58,921.169 2272.15,923.34C2289.45,988.826 2300.22,1056.19 2304.85,1123.75C2304.95,1125.24 2305.05,1126.74 2305.16,1128.23C2308.6,1176.82 2308.64,1226.42 2305,1275C2304.93,1275.88 2304.87,1276.76 2304.8,1277.66C2298.02,1367.43 2281.25,1455.9 2199.82,1676.29C2198.74,1678.55 2197.67,1680.82 2196.6,1683.08C2190.39,1696.23 2183.93,1709.22 2177,1722C2176.43,1723.06 2175.86,1724.12 2175.28,1725.18C2166,1742.38 2156.23,1759.21 2145.96,1775.83C2144.16,1778.74 2142.38,1781.66 2140.6,1784.58C2120.38,1817.72 2097.75,1849.31 2074,1880C2073.53,1880.6 2073.07,1881.2 2072.59,1881.82C2059.04,1899.32 2044.88,1916.39 2030,1932.78C2028.19,1934.79 2026.4,1936.83 2024.62,1938.88C2020.38,1943.75 2016,1948.5 2011.61,1953.25C2010.57,1954.38 2009.53,1955.51 2008.5,1956.64C1999.37,1966.56 1989.97,1976.18 1980.43,1985.7C1978.1,1988.02 1975.78,1990.35 1973.46,1992.68C1971.96,1994.18 1970.45,1995.68 1968.94,1997.19C1968.27,1997.87 1967.59,1998.55 1966.88,1999.26C1962.96,2003.16 1958.93,2006.87 1954.75,2010.49C1952.82,2012.16 1950.95,2013.88 1949.11,2015.65C1948.47,2016.26 1947.83,2016.87 1947.17,2017.49C1946.51,2018.11 1945.86,2018.74 1945.19,2019.38C1939.81,2024.46 1934.36,2029.28 1928.57,2033.89C1925.79,2036.17 1923.14,2038.56 1920.5,2041C1916.17,2044.99 1911.71,2048.77 1907.13,2052.47C1904.76,2054.37 1902.42,2056.31 1900.09,2058.25C1891.98,2065.01 1883.77,2071.53 1875.29,2077.81C1872.16,2080.12 1869.07,2082.47 1866,2084.85C1856.04,2092.53 1845.97,2099.91 1835.54,2106.93C1831.89,2109.38 1828.31,2111.9 1824.75,2114.46C1814.11,2122.09 1803.09,2129.06 1792,2136C1791.13,2136.55 1790.26,2137.1 1789.36,2137.66C1749.27,2162.86 1707.65,2185.87 1664.5,2205.41C1661.59,2206.73 1658.68,2208.07 1655.78,2209.4C1600.65,2234.76 1542.84,2255.03 1484.17,2270.43C1482,2271 1479.83,2271.58 1477.66,2272.15C1412.17,2289.45 1344.81,2300.22 1277.25,2304.85C1275.76,2304.95 1274.26,2305.05 1272.77,2305.16C1224.18,2308.6 1174.58,2308.64 1126,2305C1125.12,2304.93 1124.24,2304.87 1123.34,2304.8C1033.57,2298.02 945.101,2281.25 724.71,2199.82C722.45,2198.74 720.185,2197.67 717.919,2196.6C704.771,2190.39 691.784,2183.93 679,2177C677.938,2176.43 676.877,2175.86 675.815,2175.28C658.62,2166 641.79,2156.23 625.17,2145.96C622.261,2144.16 619.343,2142.38 616.422,2140.6C583.283,2120.38 551.689,2097.75 521,2074C520.399,2073.53 519.798,2073.07 519.178,2072.59C501.679,2059.04 484.612,2044.88 468.219,2030C466.207,2028.19 464.173,2026.4 462.125,2024.62C457.252,2020.38 452.499,2016 447.748,2011.61C446.621,2010.57 445.493,2009.53 444.364,2008.5C434.444,1999.37 424.817,1989.97 415.299,1980.43C412.978,1978.1 410.651,1975.78 408.324,1973.46C406.82,1971.96 405.316,1970.45 403.813,1968.94C403.13,1968.27 402.448,1967.59 401.745,1966.88C397.842,1962.96 394.127,1958.93 390.512,1954.75C388.841,1952.82 387.116,1950.95 385.352,1949.11C384.743,1948.47 384.135,1947.83 383.509,1947.17C382.887,1946.51 382.265,1945.86 381.625,1945.19C376.543,1939.81 371.716,1934.36 367.105,1928.57C364.828,1925.79 362.44,1923.14 360,1920.5C356.013,1916.17 352.229,1911.71 348.535,1907.13C346.628,1904.76 344.693,1902.42 342.746,1900.09C335.993,1891.98 329.465,1883.77 323.191,1875.29C320.879,1872.16 318.526,1869.07 316.152,1866C308.474,1856.04 301.095,1845.97 294.074,1835.54C291.622,1831.89 289.1,1828.31 286.54,1824.75C278.913,1814.11 271.937,1803.09 265,1792C264.452,1791.13 263.904,1790.26 263.339,1789.36C238.144,1749.27 215.128,1707.65 195.588,1664.5C194.269,1661.59 192.935,1658.68 191.597,1655.78C166.244,1600.65 145.967,1542.84 130.571,1484.17C130,1482 129.425,1479.83 128.85,1477.66C111.549,1412.17 100.779,1344.81 96.154,1277.25C96.052,1275.76 95.948,1274.26 95.842,1272.77C92.401,1224.18 92.362,1174.58 96,1126C96.066,1125.12 96.131,1124.24 96.199,1123.34C102.978,1033.57 119.752,945.101 201.184,724.71C202.263,722.45 203.333,720.185 204.402,717.919C210.615,704.771 217.066,691.784 224,679C224.573,677.938 225.145,676.877 225.717,675.815C234.997,658.62 244.771,641.79 255.044,625.17C256.841,622.261 258.622,619.343 260.398,616.422C280.624,583.283 303.248,551.689 327,521C327.465,520.399 327.929,519.798 328.408,519.178C341.963,501.679 356.12,484.612 370.996,468.219C372.813,466.207 374.599,464.173 376.375,462.125C380.625,457.252 385.002,452.499 389.387,447.748C390.427,446.621 391.466,445.493 392.504,444.364C401.631,434.444 411.026,424.817 420.57,415.299C422.897,412.978 425.218,410.651 427.539,408.324C429.044,406.82 430.549,405.316 432.055,403.813C432.735,403.13 433.415,402.448 434.116,401.745C438.038,397.842 442.068,394.127 446.255,390.512C448.184,388.841 450.051,387.116 451.895,385.352C452.534,384.743 453.174,384.135 453.833,383.509C454.16,383.198 454.16,383.198 455.813,381.625C461.189,376.543 466.639,371.716 472.426,367.105C475.211,364.828 477.858,362.44 480.5,360C484.829,356.013 489.288,352.229 493.871,348.535C496.237,346.628 498.577,344.693 500.91,342.746C509.017,335.993 517.232,329.465 525.715,323.191C528.838,320.879 531.927,318.526 535.004,316.152C544.961,308.474 555.033,301.095 565.465,294.074C569.105,291.622 572.687,289.1 576.252,286.54C586.887,278.913 597.907,271.937 609,265C609.436,264.726 609.436,264.726 611.642,263.339C651.733,238.144 693.354,215.128 736.5,195.588C739.413,194.269 742.319,192.935 745.224,191.597C800.347,166.244 858.158,145.967 916.826,130.571C918.998,130 921.169,129.425 923.34,128.85C988.826,111.549 1056.19,100.779 1123.75,96.154C1125.24,96.052 1126.74,95.948 1128.23,95.842C1176.82,92.401 1226.42,92.362 1275,96ZM1126,102C1125.14,102.063 1124.27,102.126 1123.38,102.191C1033.22,108.837 944.726,126.19 661.532,240.529C658.828,242.1 656.102,243.626 653.367,245.145C639.817,252.673 626.63,260.689 613.558,269.01C611.969,270.02 610.377,271.026 608.785,272.03C596.292,279.911 583.958,287.932 571.979,296.582C569.972,298.02 567.95,299.435 565.922,300.844C556.107,307.671 546.572,314.823 537.09,322.105C533.252,325.052 529.385,327.954 525.497,330.833C518.764,335.822 512.292,341.022 505.941,346.488C503.365,348.704 500.731,350.833 498.063,352.938C488.819,360.272 479.95,368.072 471.215,376C469.226,377.796 467.214,379.56 465.188,381.313C460.608,385.306 456.153,389.431 451.702,393.565C449.34,395.759 446.973,397.948 444.604,400.133C435.887,408.195 427.39,416.453 419.008,424.861C416.977,426.898 414.94,428.93 412.902,430.961C411.58,432.284 410.259,433.606 408.938,434.93C408.64,435.226 408.64,435.226 407.135,436.726C403.452,440.429 399.972,444.261 396.556,448.211C394.8,450.23 392.986,452.183 391.133,454.113C390.479,454.798 389.826,455.483 389.153,456.189C388.484,456.89 387.814,457.591 387.125,458.313C381.858,463.864 376.831,469.469 372.07,475.461C369.807,478.237 367.429,480.87 365,483.5C361.013,487.829 357.229,492.288 353.535,496.871C351.628,499.237 349.693,501.577 347.746,503.91C340.993,512.017 334.465,520.232 328.191,528.715C325.879,531.838 323.526,534.927 321.152,538.004C313.477,547.957 306.101,558.026 299.082,568.453C296.593,572.148 294.033,575.784 291.438,579.405C285.09,588.266 279.23,597.38 273.478,606.637C272.06,608.904 270.623,611.157 269.176,613.406C255.636,634.494 243.147,656.229 231.401,678.361C230.133,680.75 228.855,683.134 227.574,685.516C201.849,733.599 179.926,783.487 162,835C161.884,835.334 161.884,835.334 161.295,837.023C131.662,922.219 112.859,1010.23 102,1126C101.948,1126.73 101.896,1127.45 101.842,1128.2C98.372,1176.8 98.396,1226.41 102,1275C102.063,1275.86 102.126,1276.73 102.191,1277.62C108.837,1367.78 126.19,1456.27 240.529,1739.47C242.1,1742.17 243.626,1744.9 245.145,1747.63C252.673,1761.18 260.689,1774.37 269.01,1787.44C270.02,1789.03 271.026,1790.62 272.03,1792.22C279.911,1804.71 287.932,1817.04 296.582,1829.02C298.02,1831.03 299.435,1833.05 300.844,1835.08C307.671,1844.89 314.823,1854.43 322.105,1863.91C325.052,1867.75 327.954,1871.62 330.833,1875.5C335.822,1882.24 341.022,1888.71 346.488,1895.06C348.704,1897.63 350.833,1900.27 352.938,1902.94C360.272,1912.18 368.072,1921.05 376,1929.79C377.796,1931.77 379.56,1933.79 381.313,1935.81C385.306,1940.39 389.431,1944.85 393.565,1949.3C395.759,1951.66 397.948,1954.03 400.133,1956.4C408.195,1965.11 416.453,1973.61 424.861,1981.99C426.898,1984.02 428.93,1986.06 430.961,1988.1C432.284,1989.42 433.606,1990.74 434.93,1992.06C435.523,1992.66 436.115,1993.25 436.726,1993.87C440.429,1997.55 444.261,2001.03 448.211,2004.44C450.23,2006.2 452.183,2008.01 454.113,2009.87C454.456,2010.19 454.456,2010.19 456.189,2011.85C456.89,2012.52 457.591,2013.19 458.313,2013.88C463.864,2019.14 469.469,2024.17 475.461,2028.93C478.237,2031.19 480.87,2033.57 483.5,2036C487.829,2039.99 492.288,2043.77 496.871,2047.47C499.237,2049.37 501.577,2051.31 503.91,2053.25C512.017,2060.01 520.232,2066.53 528.715,2072.81C531.838,2075.12 534.927,2077.47 538.004,2079.85C547.957,2087.52 558.026,2094.9 568.453,2101.92C572.148,2104.41 575.784,2106.97 579.405,2109.56C588.266,2115.91 597.38,2121.77 606.637,2127.52C608.904,2128.94 611.157,2130.38 613.406,2131.82C634.494,2145.36 656.229,2157.85 678.361,2169.6C680.75,2170.87 683.134,2172.14 685.516,2173.43C733.599,2199.15 783.487,2221.07 835,2239C835.334,2239.12 835.334,2239.12 837.023,2239.7C922.219,2269.34 1010.23,2288.14 1126,2299C1126.73,2299.05 1127.45,2299.1 1128.2,2299.16C1176.8,2302.63 1226.41,2302.6 1275,2299C1275.86,2298.94 1276.73,2298.87 1277.62,2298.81C1367.78,2292.16 1456.27,2274.81 1739.47,2160.47C1742.17,2158.9 1744.9,2157.37 1747.63,2155.86C1761.18,2148.33 1774.37,2140.31 1787.44,2131.99C1789.03,2130.98 1790.62,2129.97 1792.22,2128.97C1804.71,2121.09 1817.04,2113.07 1829.02,2104.42C1831.03,2102.98 1833.05,2101.57 1835.08,2100.16C1844.89,2093.33 1854.43,2086.18 1863.91,2078.89C1867.75,2075.95 1871.62,2073.05 1875.5,2070.17C1882.24,2065.18 1888.71,2059.98 1895.06,2054.51C1897.63,2052.3 1900.27,2050.17 1902.94,2048.06C1912.18,2040.73 1921.05,2032.93 1929.79,2025C1931.77,2023.2 1933.79,2021.44 1935.81,2019.69C1940.39,2015.69 1944.85,2011.57 1949.3,2007.43C1951.66,2005.24 1954.03,2003.05 1956.4,2000.87C1965.11,1992.81 1973.61,1984.55 1981.99,1976.14C1984.02,1974.1 1986.06,1972.07 1988.1,1970.04C1989.42,1968.72 1990.74,1967.39 1992.06,1966.07C1992.66,1965.48 1993.25,1964.88 1993.87,1964.27C1997.55,1960.57 2001.03,1956.74 2004.44,1952.79C2006.2,1950.77 2008.01,1948.82 2009.87,1946.89C2010.52,1946.2 2011.17,1945.52 2011.85,1944.81C2012.52,1944.11 2013.19,1943.41 2013.88,1942.69C2019.14,1937.14 2024.17,1931.53 2028.93,1925.54C2031.19,1922.76 2033.57,1920.13 2036,1917.5C2039.99,1913.17 2043.77,1908.71 2047.47,1904.13C2049.37,1901.76 2051.31,1899.42 2053.25,1897.09C2060.01,1888.98 2066.53,1880.77 2072.81,1872.29C2075.12,1869.16 2077.47,1866.07 2079.85,1863C2087.52,1853.04 2094.9,1842.97 2101.92,1832.55C2104.41,1828.85 2106.97,1825.22 2109.56,1821.6C2115.91,1812.73 2121.77,1803.62 2127.52,1794.36C2128.94,1792.1 2130.38,1789.84 2131.82,1787.59C2145.36,1766.51 2157.85,1744.77 2169.6,1722.64C2170.87,1720.25 2172.14,1717.87 2173.43,1715.48C2199.15,1667.4 2221.07,1617.51 2239,1566C2239.23,1565.33 2239.47,1564.66 2239.7,1563.98C2269.34,1478.78 2288.14,1390.78 2299,1275C2299.05,1274.27 2299.1,1273.55 2299.16,1272.8C2302.63,1224.2 2302.6,1174.59 2299,1126C2298.94,1125.14 2298.87,1124.27 2298.81,1123.38C2292.16,1033.22 2274.81,944.726 2160.47,661.532C2158.9,658.828 2157.37,656.102 2155.86,653.367C2148.33,639.817 2140.31,626.63 2131.99,613.558C2130.98,611.969 2129.97,610.377 2128.97,608.785C2121.09,596.292 2113.07,583.958 2104.42,571.979C2102.98,569.972 2101.57,567.95 2100.16,565.922C2093.33,556.107 2086.18,546.572 2078.89,537.09C2075.95,533.252 2073.05,529.385 2070.17,525.497C2065.18,518.764 2059.98,512.292 2054.51,505.941C2052.3,503.365 2050.17,500.731 2048.06,498.063C2040.73,488.819 2032.93,479.95 2025,471.215C2023.2,469.226 2021.44,467.214 2019.69,465.188C2015.69,460.608 2011.57,456.153 2007.43,451.702C2005.24,449.34 2003.05,446.973 2000.87,444.604C1992.81,435.887 1984.55,427.39 1976.14,419.008C1974.1,416.977 1972.07,414.94 1970.04,412.902C1968.72,411.58 1967.39,410.259 1966.07,408.938C1965.77,408.64 1965.77,408.64 1964.27,407.135C1960.57,403.452 1956.74,399.972 1952.79,396.556C1950.77,394.8 1948.82,392.986 1946.89,391.133C1946.2,390.479 1945.52,389.826 1944.81,389.153C1944.46,388.818 1944.46,388.818 1942.69,387.125C1937.14,381.858 1931.53,376.831 1925.54,372.07C1922.76,369.807 1920.13,367.429 1917.5,365C1913.17,361.013 1908.71,357.229 1904.13,353.535C1901.76,351.628 1899.42,349.693 1897.09,347.746C1888.98,340.993 1880.77,334.465 1872.29,328.191C1869.16,325.879 1866.07,323.526 1863,321.152C1853.04,313.477 1842.97,306.101 1832.55,299.082C1828.85,296.593 1825.22,294.033 1821.6,291.438C1812.73,285.09 1803.62,279.23 1794.36,273.478C1792.1,272.06 1789.84,270.623 1787.59,269.176C1766.51,255.636 1744.77,243.147 1722.64,231.401C1720.25,230.133 1717.87,228.855 1715.48,227.574C1667.4,201.849 1617.51,179.926 1566,162C1565.33,161.767 1564.66,161.535 1563.98,161.295C1478.78,131.662 1390.78,112.859 1275,102C1274.64,101.974 1274.64,101.974 1272.8,101.842C1224.2,98.372 1174.59,98.396 1126,102Z" style="fill-rule:nonzero;"/>
        <path d="M1199.5,269.813C1200.17,269.813 1200.84,269.813 1201.52,269.813C1224.07,269.825 1246.52,270.193 1269,272C1269.4,272.032 1269.4,272.032 1271.4,272.191C1355.62,278.972 1439.24,296.343 1572,347C1572.31,347.136 1572.31,347.136 1573.87,347.826C1601.65,360.108 1628.92,373.175 1655.22,388.403C1658.09,390.051 1660.97,391.668 1663.86,393.277C1676.17,400.135 1688.22,407.268 1700,415C1700.59,415.39 1701.19,415.78 1701.8,416.182C1735.32,438.207 1735.32,438.207 1751,450C1751.84,450.631 1752.68,451.262 1753.54,451.912C1759.72,456.572 1765.87,461.273 1772,466C1772.69,466.529 1773.37,467.058 1774.08,467.603C1781.52,473.35 1788.77,479.278 1795.92,485.387C1798.74,487.791 1801.61,490.117 1804.5,492.438C1809.88,496.816 1814.95,501.5 1820.02,506.234C1822.27,508.329 1824.55,510.373 1826.88,512.375C1838.84,522.755 1850.09,533.931 1861.27,545.143C1863.52,547.397 1865.78,549.646 1868.03,551.895C1869.49,553.354 1870.95,554.813 1872.41,556.273C1873.07,556.932 1873.73,557.59 1874.41,558.269C1878.24,562.116 1881.88,566.069 1885.42,570.184C1887.99,573.139 1890.69,575.966 1893.38,578.813C1898.01,583.763 1902.39,588.808 1906.63,594.102C1909.45,597.591 1912.42,600.941 1915.38,604.313C1921.51,611.351 1927.32,618.592 1933,626C1933.3,626.391 1933.3,626.391 1934.83,628.368C1939.59,634.552 1944.31,640.764 1949,647C1949.26,647.35 1949.26,647.35 1950.6,649.12C1968.03,672.369 1984.19,697.002 1999,722C1999.57,722.969 2000.15,723.938 2000.74,724.937C2010.64,741.697 2020,758.742 2029,776C2029.28,776.532 2029.56,777.063 2029.84,777.611C2065.96,846.827 2092.19,921.877 2130,1148C2130.05,1148.8 2130.1,1149.61 2130.14,1150.44C2131.08,1166.79 2131.2,1183.13 2131.19,1199.5C2131.19,1200.17 2131.19,1200.84 2131.19,1201.52C2131.18,1224.07 2130.81,1246.52 2129,1269C2128.94,1269.79 2128.87,1270.59 2128.81,1271.4C2122.03,1355.62 2104.66,1439.24 2054,1572C2053.86,1572.31 2053.86,1572.31 2053.17,1573.87C2040.89,1601.65 2027.83,1628.92 2012.6,1655.22C2010.95,1658.09 2009.33,1660.97 2007.72,1663.86C2000.87,1676.17 1993.73,1688.22 1986,1700C1985.61,1700.59 1985.22,1701.19 1984.82,1701.8C1962.79,1735.32 1962.79,1735.32 1951,1751C1950.37,1751.84 1949.74,1752.68 1949.09,1753.54C1944.43,1759.72 1939.73,1765.87 1935,1772C1934.47,1772.69 1933.94,1773.37 1933.4,1774.08C1927.65,1781.52 1921.72,1788.77 1915.61,1795.92C1913.21,1798.74 1910.88,1801.61 1908.56,1804.5C1904.18,1809.88 1899.5,1814.95 1894.77,1820.02C1892.67,1822.27 1890.63,1824.55 1888.62,1826.88C1878.25,1838.84 1867.07,1850.09 1855.86,1861.27C1853.6,1863.52 1851.35,1865.78 1849.11,1868.03C1847.65,1869.49 1846.19,1870.95 1844.73,1872.41C1844.4,1872.74 1844.4,1872.74 1842.73,1874.41C1838.88,1878.24 1834.93,1881.88 1830.82,1885.42C1827.86,1887.99 1825.03,1890.69 1822.19,1893.38C1817.24,1898.01 1812.19,1902.39 1806.9,1906.63C1803.41,1909.45 1800.06,1912.42 1796.69,1915.38C1789.65,1921.51 1782.41,1927.32 1775,1933C1774.61,1933.3 1774.61,1933.3 1772.63,1934.83C1766.45,1939.59 1760.24,1944.31 1754,1949C1753.3,1949.53 1752.6,1950.06 1751.88,1950.6C1728.63,1968.03 1704,1984.19 1679,1999C1678.03,1999.57 1677.06,2000.15 1676.06,2000.74C1659.3,2010.64 1642.26,2020 1625,2029C1624.47,2029.28 1623.94,2029.56 1623.39,2029.84C1554.17,2065.96 1479.12,2092.19 1253,2130C1252.2,2130.05 1251.39,2130.1 1250.56,2130.14C1234.21,2131.08 1217.87,2131.2 1201.5,2131.19C1200.83,2131.19 1200.16,2131.19 1199.48,2131.19C1176.93,2131.18 1154.48,2130.81 1132,2129C1131.21,2128.94 1130.41,2128.87 1129.6,2128.81C1045.38,2122.03 961.762,2104.66 829,2054C828.691,2053.86 828.691,2053.86 827.129,2053.17C799.349,2040.89 772.078,2027.83 745.78,2012.6C742.911,2010.95 740.027,2009.33 737.137,2007.72C724.827,2000.87 712.78,1993.73 701,1986C700.406,1985.61 699.811,1985.22 699.199,1984.82C665.677,1962.79 665.677,1962.79 650,1951C649.161,1950.37 648.322,1949.74 647.457,1949.09C641.277,1944.43 635.129,1939.73 629,1935C628.314,1934.47 627.627,1933.94 626.92,1933.4C619.481,1927.65 612.227,1921.72 605.082,1915.61C602.263,1913.21 599.389,1910.88 596.5,1908.56C591.116,1904.18 586.052,1899.5 580.98,1894.77C578.734,1892.67 576.455,1890.63 574.125,1888.62C562.158,1878.25 550.906,1867.07 539.727,1855.86C537.478,1853.6 535.223,1851.35 532.969,1849.11C531.51,1847.65 530.052,1846.19 528.594,1844.73C527.933,1844.07 527.273,1843.41 526.592,1842.73C522.764,1838.88 519.116,1834.93 515.578,1830.82C513.011,1827.86 510.31,1825.03 507.625,1822.19C502.992,1817.24 498.605,1812.19 494.367,1806.9C491.552,1803.41 488.58,1800.06 485.625,1796.69C479.487,1789.65 473.683,1782.41 468,1775C467.398,1774.22 466.796,1773.44 466.175,1772.63C461.414,1766.45 456.692,1760.24 452,1754C451.472,1753.3 450.945,1752.6 450.401,1751.88C432.966,1728.63 416.807,1704 402,1679C401.426,1678.03 400.851,1677.06 400.259,1676.06C390.358,1659.3 381.003,1642.26 372,1625C371.722,1624.47 371.444,1623.94 371.158,1623.39C335.038,1554.17 308.807,1479.12 271,1253C270.953,1252.2 270.905,1251.39 270.857,1250.56C269.922,1234.21 269.798,1217.87 269.813,1201.5C269.813,1200.83 269.813,1200.16 269.813,1199.48C269.825,1176.93 270.193,1154.48 272,1132C272.063,1131.21 272.126,1130.41 272.191,1129.6C278.972,1045.38 296.343,961.762 347,829C347.136,828.691 347.136,828.691 347.826,827.129C360.108,799.349 373.175,772.078 388.403,745.78C390.051,742.911 391.668,740.027 393.277,737.137C400.135,724.827 407.268,712.78 415,701C415.195,700.703 415.195,700.703 416.182,699.199C438.207,665.677 438.207,665.677 450,650C450.631,649.161 451.262,648.322 451.912,647.457C456.572,641.277 461.273,635.129 466,629C466.529,628.314 467.058,627.627 467.603,626.92C473.35,619.481 479.278,612.227 485.387,605.082C487.791,602.263 490.117,599.389 492.438,596.5C496.816,591.116 501.5,586.052 506.234,580.98C508.329,578.734 510.373,576.455 512.375,574.125C522.755,562.158 533.931,550.906 545.143,539.727C547.397,537.478 549.646,535.223 551.895,532.969C553.354,531.51 554.813,530.052 556.273,528.594C556.932,527.933 557.59,527.273 558.269,526.592C562.116,522.764 566.069,519.116 570.184,515.578C573.139,513.011 575.966,510.31 578.813,507.625C583.763,502.992 588.808,498.605 594.102,494.367C597.591,491.552 600.941,488.58 604.313,485.625C611.351,479.487 618.592,473.683 626,468C626.781,467.398 627.563,466.796 628.368,466.175C634.552,461.414 640.764,456.692 647,452C647.699,451.472 648.399,450.945 649.12,450.401C672.369,432.966 697.002,416.807 722,402C722.969,401.426 723.938,400.851 724.937,400.259C741.697,390.358 758.742,381.003 776,372C776.532,371.722 777.063,371.444 777.611,371.158C846.827,335.038 921.877,308.807 1148,271C1148.8,270.953 1149.61,270.905 1150.44,270.857C1166.79,269.922 1183.13,269.798 1199.5,269.813ZM1133,285C1132.2,285.063 1131.4,285.126 1130.57,285.191C1077.64,289.379 1025.49,298.082 974,311C972.678,311.329 971.357,311.658 970.035,311.987C907.955,327.519 848.399,350.911 791,379C790.058,379.457 789.116,379.915 788.146,380.386C774.74,386.902 761.717,393.956 748.801,401.395C746.095,402.946 743.378,404.476 740.656,406C706.633,425.102 674.251,447.403 643.354,471.189C641.295,472.773 639.231,474.351 637.164,475.926C627.48,483.312 618.099,491.028 608.827,498.925C605.514,501.741 602.153,504.48 598.75,507.188C593.026,511.839 587.7,516.889 582.364,521.977C578.834,525.344 575.273,528.649 571.609,531.871C564.212,538.498 557.261,545.591 550.249,552.62C547.811,555.064 545.368,557.502 542.924,559.939C541.351,561.513 539.779,563.086 538.207,564.66C537.847,565.019 537.847,565.019 536.025,566.836C532.038,570.841 528.218,574.939 524.535,579.227C522.141,581.993 519.627,584.645 517.125,587.313C512.68,592.089 508.487,596.977 504.402,602.066C501.571,605.564 498.59,608.929 495.625,612.313C489.487,619.351 483.683,626.592 478,634C477.398,634.781 476.796,635.563 476.175,636.368C449.299,671.271 424.798,707.707 403,746C402.689,746.545 402.379,747.09 402.059,747.652C364.129,814.287 334.666,885.564 308,986C307.814,986.775 307.628,987.551 307.437,988.35C295.105,1040.01 286.849,1093.03 284.1,1146.1C284.028,1147.47 283.952,1148.84 283.875,1150.21C282.953,1166.66 282.798,1183.09 282.813,1199.56C282.813,1200.23 282.813,1200.9 282.813,1201.59C282.824,1223.78 283.211,1245.87 285,1268C285.063,1268.8 285.126,1269.6 285.191,1270.43C289.379,1323.36 298.082,1375.52 311,1427C311.329,1428.32 311.658,1429.64 311.987,1430.96C327.519,1493.05 350.911,1552.6 379,1610C379.229,1610.47 379.229,1610.47 380.386,1612.85C386.902,1626.26 393.956,1639.28 401.395,1652.2C402.946,1654.9 404.476,1657.62 406,1660.34C425.102,1694.37 447.403,1726.75 471.189,1757.65C472.773,1759.7 474.351,1761.77 475.926,1763.84C483.312,1773.52 491.028,1782.9 498.925,1792.17C501.741,1795.49 504.48,1798.85 507.188,1802.25C511.839,1807.97 516.889,1813.3 521.977,1818.64C525.344,1822.17 528.649,1825.73 531.871,1829.39C538.498,1836.79 545.591,1843.74 552.62,1850.75C555.064,1853.19 557.502,1855.63 559.939,1858.08C561.513,1859.65 563.086,1861.22 564.66,1862.79C565.378,1863.51 566.096,1864.23 566.836,1864.98C570.841,1868.96 574.939,1872.78 579.227,1876.47C581.993,1878.86 584.645,1881.37 587.313,1883.88C592.089,1888.32 596.977,1892.51 602.066,1896.6C605.564,1899.43 608.929,1902.41 612.313,1905.38C619.351,1911.51 626.592,1917.32 634,1923C634.781,1923.6 635.563,1924.2 636.368,1924.83C671.271,1951.7 707.707,1976.2 746,1998C746.545,1998.31 747.09,1998.62 747.652,1998.94C814.287,2036.87 885.564,2066.33 986,2093C986.388,2093.09 986.388,2093.09 988.35,2093.56C1040.01,2105.89 1093.03,2114.15 1146.1,2116.9C1147.47,2116.97 1148.84,2117.05 1150.21,2117.12C1166.66,2118.05 1183.09,2118.2 1199.56,2118.19C1200.23,2118.19 1200.9,2118.19 1201.59,2118.19C1223.78,2118.18 1245.87,2117.79 1268,2116C1268.8,2115.94 1269.6,2115.87 1270.43,2115.81C1323.36,2111.62 1375.52,2102.92 1427,2090C1428.32,2089.67 1429.64,2089.34 1430.96,2089.01C1493.05,2073.48 1552.6,2050.09 1610,2022C1610.47,2021.77 1610.47,2021.77 1612.85,2020.61C1626.26,2014.1 1639.28,2007.04 1652.2,1999.61C1654.9,1998.05 1657.62,1996.52 1660.34,1995C1694.37,1975.9 1726.75,1953.6 1757.65,1929.81C1759.7,1928.23 1761.77,1926.65 1763.84,1925.07C1773.52,1917.69 1782.9,1909.97 1792.17,1902.08C1795.49,1899.26 1798.85,1896.52 1802.25,1893.81C1807.97,1889.16 1813.3,1884.11 1818.64,1879.02C1822.17,1875.66 1825.73,1872.35 1829.39,1869.13C1836.79,1862.5 1843.74,1855.41 1850.75,1848.38C1853.19,1845.94 1855.63,1843.5 1858.08,1841.06C1859.65,1839.49 1861.22,1837.91 1862.79,1836.34C1863.51,1835.62 1864.23,1834.9 1864.98,1834.16C1868.96,1830.16 1872.78,1826.06 1876.47,1821.77C1878.86,1819.01 1881.37,1816.36 1883.88,1813.69C1888.32,1808.91 1892.51,1804.02 1896.6,1798.93C1899.43,1795.44 1902.41,1792.07 1905.38,1788.69C1911.51,1781.65 1917.32,1774.41 1923,1767C1923.6,1766.22 1924.2,1765.44 1924.83,1764.63C1951.7,1729.73 1976.2,1693.29 1998,1655C1998.31,1654.45 1998.62,1653.91 1998.94,1653.35C2036.87,1586.71 2066.33,1515.44 2093,1415C2093.19,1414.23 2093.37,1413.45 2093.56,1412.65C2105.89,1361 2114.15,1307.98 2116.9,1254.9C2116.97,1253.53 2117.05,1252.16 2117.12,1250.79C2118.05,1234.34 2118.2,1217.91 2118.19,1201.44C2118.19,1200.77 2118.19,1200.1 2118.19,1199.41C2118.18,1177.22 2117.79,1155.13 2116,1133C2115.94,1132.2 2115.87,1131.4 2115.81,1130.57C2111.62,1077.64 2102.92,1025.49 2090,974C2089.67,972.678 2089.34,971.357 2089.01,970.035C2073.48,907.955 2050.09,848.399 2022,791C2021.54,790.058 2021.09,789.116 2020.61,788.146C2014.1,774.74 2007.04,761.717 1999.61,748.801C1998.05,746.095 1996.52,743.378 1995,740.656C1975.9,706.633 1953.6,674.251 1929.81,643.354C1928.23,641.295 1926.65,639.231 1925.07,637.164C1917.69,627.48 1909.97,618.099 1902.08,608.827C1899.26,605.514 1896.52,602.153 1893.81,598.75C1889.16,593.026 1884.11,587.7 1879.02,582.364C1875.66,578.834 1872.35,575.273 1869.13,571.609C1862.5,564.212 1855.41,557.261 1848.38,550.249C1845.94,547.811 1843.5,545.368 1841.06,542.924C1839.49,541.351 1837.91,539.779 1836.34,538.207C1835.98,537.847 1835.98,537.847 1834.16,536.025C1830.16,532.038 1826.06,528.218 1821.77,524.535C1819.01,522.141 1816.36,519.627 1813.69,517.125C1808.91,512.68 1804.02,508.487 1798.93,504.402C1795.44,501.571 1792.07,498.59 1788.69,495.625C1781.65,489.487 1774.41,483.683 1767,478C1766.22,477.398 1765.44,476.796 1764.63,476.175C1729.73,449.299 1693.29,424.798 1655,403C1654.45,402.689 1653.91,402.379 1653.35,402.059C1586.71,364.129 1515.44,334.666 1415,308C1414.23,307.814 1413.45,307.628 1412.65,307.437C1361,295.105 1307.98,286.849 1254.9,284.1C1253.53,284.028 1252.16,283.952 1250.79,283.875C1234.34,282.953 1217.91,282.798 1201.44,282.813C1201.1,282.813 1201.1,282.813 1199.41,282.813C1177.22,282.824 1155.13,283.211 1133,285Z" style="fill-rule:nonzero;"/>
        <path d="M1545,367C1545.3,367.126 1545.3,367.126 1546.84,367.766C1584.45,383.446 1621.25,401.448 1656.24,422.354C1658.84,423.907 1661.45,425.447 1664.06,426.984C1673.51,432.568 1682.81,438.356 1692.06,444.25C1692.58,444.579 1693.1,444.907 1693.63,445.246C1700.08,449.341 1706.34,453.623 1712.48,458.151C1715.27,460.2 1718.1,462.182 1720.94,464.156C1731.88,471.769 1742.46,479.851 1753,488C1753.69,488.53 1754.38,489.061 1755.08,489.607C1762.52,495.352 1769.77,501.277 1776.91,507.383C1779.32,509.431 1781.75,511.431 1784.21,513.41C1789.76,517.882 1795.02,522.61 1800.24,527.457C1802.4,529.453 1804.59,531.398 1806.81,533.313C1818.64,543.595 1829.79,554.624 1840.85,565.716C1843.02,567.898 1845.2,570.074 1847.39,572.25C1848.8,573.664 1850.21,575.078 1851.62,576.492C1852.26,577.129 1852.9,577.765 1853.56,578.421C1857.34,582.222 1860.94,586.134 1864.44,590.198C1866.84,592.971 1869.36,595.635 1871.88,598.313C1876.32,603.089 1880.51,607.977 1884.6,613.066C1887.43,616.564 1890.41,619.929 1893.38,623.313C1899.51,630.351 1905.32,637.592 1911,645C1911.3,645.391 1911.3,645.391 1912.83,647.368C1924.67,662.755 1936.39,678.241 1947.02,694.507C1948.06,696.088 1949.12,697.656 1950.18,699.223C1987.45,754.268 2018.18,813.981 2042,876C2042.23,876.603 2042.46,877.207 2042.7,877.828C2055.51,911.255 2066.2,945.306 2075,980C2075.18,980.705 2075.36,981.41 2075.54,982.137C2088.13,1031.65 2095.84,1082.11 2100,1133C2100.06,1133.75 2100.12,1134.49 2100.19,1135.26C2106.86,1217.31 2100.51,1300.99 2034,1545C2033.75,1545.61 2033.5,1546.21 2033.23,1546.84C2017.55,1584.45 1999.55,1621.25 1978.65,1656.24C1977.09,1658.84 1975.55,1661.45 1974.02,1664.06C1968.43,1673.51 1962.64,1682.81 1956.75,1692.06C1956.42,1692.58 1956.09,1693.1 1955.75,1693.63C1951.66,1700.08 1947.38,1706.34 1942.85,1712.48C1940.8,1715.27 1938.82,1718.1 1936.84,1720.94C1929.23,1731.88 1921.15,1742.46 1913,1753C1912.47,1753.69 1911.94,1754.38 1911.39,1755.08C1905.65,1762.52 1899.72,1769.77 1893.62,1776.91C1891.57,1779.32 1889.57,1781.75 1887.59,1784.21C1883.12,1789.76 1878.39,1795.02 1873.54,1800.24C1871.55,1802.4 1869.6,1804.59 1867.69,1806.81C1857.4,1818.64 1846.38,1829.79 1835.28,1840.85C1833.1,1843.02 1830.93,1845.2 1828.75,1847.39C1827.34,1848.8 1825.92,1850.21 1824.51,1851.62C1823.87,1852.26 1823.24,1852.9 1822.58,1853.56C1818.78,1857.34 1814.87,1860.94 1810.8,1864.44C1808.03,1866.84 1805.37,1869.36 1802.69,1871.88C1797.91,1876.32 1793.02,1880.51 1787.93,1884.6C1784.44,1887.43 1781.07,1890.41 1777.69,1893.38C1770.65,1899.51 1763.41,1905.32 1756,1911C1755.61,1911.3 1755.61,1911.3 1753.63,1912.83C1738.25,1924.67 1722.76,1936.39 1706.49,1947.02C1704.91,1948.06 1703.34,1949.12 1701.78,1950.18C1646.73,1987.45 1587.02,2018.18 1525,2042C1524.4,2042.23 1523.79,2042.46 1523.17,2042.7C1489.75,2055.51 1455.69,2066.2 1421,2075C1420.3,2075.18 1419.59,2075.36 1418.86,2075.54C1369.35,2088.13 1318.89,2095.84 1268,2100C1267.25,2100.06 1266.51,2100.12 1265.74,2100.19C1183.69,2106.86 1100.01,2100.51 856,2034C855.394,2033.75 854.787,2033.5 854.163,2033.23C816.548,2017.55 779.752,1999.55 744.758,1978.65C742.156,1977.09 739.548,1975.55 736.938,1974.02C727.495,1968.43 718.189,1962.64 708.938,1956.75C708.42,1956.42 707.902,1956.09 707.369,1955.75C700.925,1951.66 694.663,1947.38 688.517,1942.85C685.728,1940.8 682.898,1938.82 680.056,1936.84C669.115,1929.23 658.544,1921.15 648,1913C647.312,1912.47 646.624,1911.94 645.916,1911.39C638.479,1905.65 631.228,1899.72 624.086,1893.62C621.685,1891.57 619.249,1889.57 616.791,1887.59C611.238,1883.12 605.983,1878.39 600.758,1873.54C598.604,1871.55 596.415,1869.6 594.188,1867.69C582.363,1857.4 571.213,1846.38 560.154,1835.28C557.977,1833.1 555.796,1830.93 553.613,1828.75C552.2,1827.34 550.787,1825.92 549.375,1824.51C548.736,1823.87 548.098,1823.24 547.44,1822.58C543.659,1818.78 540.061,1814.87 536.564,1810.8C534.157,1808.03 531.637,1805.37 529.125,1802.69C524.68,1797.91 520.487,1793.02 516.402,1787.93C513.571,1784.44 510.59,1781.07 507.625,1777.69C501.487,1770.65 495.683,1763.41 490,1756C489.398,1755.22 488.796,1754.44 488.175,1753.63C476.327,1738.25 464.608,1722.76 453.983,1706.49C452.942,1704.91 451.883,1703.34 450.82,1701.78C413.552,1646.73 382.822,1587.02 359,1525C358.884,1524.7 358.884,1524.7 358.297,1523.17C345.487,1489.75 334.801,1455.69 326,1421C325.82,1420.3 325.641,1419.59 325.456,1418.86C312.873,1369.35 305.164,1318.89 301,1268C300.938,1267.25 300.877,1266.51 300.813,1265.74C294.137,1183.69 300.493,1100.01 367,856C367.126,855.697 367.126,855.697 367.766,854.163C383.446,816.548 401.448,779.752 422.354,744.758C423.907,742.156 425.447,739.548 426.984,736.938C432.568,727.495 438.356,718.189 444.25,708.938C444.579,708.42 444.907,707.902 445.246,707.369C449.341,700.925 453.623,694.663 458.151,688.517C460.2,685.728 462.182,682.898 464.156,680.056C471.769,669.115 479.851,658.544 488,648C488.53,647.312 489.061,646.624 489.607,645.916C495.352,638.479 501.277,631.228 507.383,624.086C509.431,621.685 511.431,619.249 513.41,616.791C517.882,611.238 522.61,605.983 527.457,600.758C529.453,598.604 531.398,596.415 533.313,594.188C543.595,582.363 554.624,571.213 565.716,560.154C567.898,557.977 570.074,555.796 572.25,553.613C573.664,552.2 575.078,550.787 576.492,549.375C577.129,548.736 577.765,548.098 578.421,547.44C582.222,543.659 586.134,540.061 590.198,536.564C592.971,534.157 595.635,531.637 598.313,529.125C603.089,524.68 607.977,520.487 613.066,516.402C616.564,513.571 619.929,510.59 623.313,507.625C630.351,501.487 637.592,495.683 645,490C645.781,489.398 646.563,488.796 647.368,488.175C662.755,476.327 678.241,464.608 694.507,453.983C696.088,452.942 697.656,451.883 699.223,450.82C754.268,413.552 813.981,382.822 876,359C876.302,358.884 876.302,358.884 877.828,358.297C911.255,345.487 945.306,334.801 980,326C980.705,325.82 981.41,325.641 982.137,325.456C1031.65,312.873 1082.11,305.164 1133,301C1133.75,300.938 1134.49,300.877 1135.26,300.813C1217.31,294.137 1300.99,300.493 1545,367ZM1134,306C1133.21,306.063 1132.43,306.126 1131.62,306.191C1063.3,311.729 996.439,324.618 931,345C930.228,345.24 929.457,345.48 928.662,345.728C893.245,356.799 858.58,370.207 825,386C824.728,386.128 824.728,386.128 823.353,386.773C815.535,390.445 807.76,394.204 800,398C799.061,398.456 798.122,398.912 797.155,399.381C783.332,406.101 769.904,413.376 756.603,421.075C754.937,422.036 753.267,422.992 751.596,423.946C734.617,433.645 718.177,443.935 702.021,454.95C698.947,457.042 695.849,459.098 692.75,461.152C687.951,464.341 683.225,467.616 678.563,471C677.815,471.541 677.068,472.082 676.298,472.64C666.742,479.597 657.361,486.784 648,494C647.319,494.524 646.638,495.047 645.936,495.587C638.796,501.087 631.846,506.762 625.035,512.666C621.598,515.644 618.116,518.536 614.563,521.375C608.582,526.223 603.03,531.504 597.434,536.785C594.965,539.11 592.462,541.369 589.875,543.563C585.61,547.222 581.721,551.252 577.775,555.247C574.96,558.084 572.141,560.82 569.063,563.375C564.422,567.309 560.406,571.838 556.289,576.304C552.789,580.098 549.244,583.819 545.563,587.438C542.16,590.802 538.946,594.248 535.836,597.883C534.063,599.928 532.244,601.925 530.411,603.916C526.298,608.384 522.345,612.935 518.533,617.668C515.951,620.865 513.298,623.99 510.606,627.095C504.991,633.571 499.652,640.187 494.493,647.03C492.754,649.324 490.999,651.606 489.242,653.887C468.573,680.771 449.411,708.891 432,738C431.447,738.924 430.894,739.848 430.324,740.799C401.957,788.371 378.397,838.134 359,890C358.751,890.662 358.503,891.324 358.247,892.007C329.839,967.761 312.838,1048.1 305,1149C304.958,1149.74 304.915,1150.49 304.872,1151.26C303.972,1167.36 303.797,1183.44 303.813,1199.56C303.813,1200.21 303.813,1200.85 303.813,1201.52C303.825,1223.4 304.223,1245.18 306,1267C306.063,1267.79 306.126,1268.57 306.191,1269.38C311.729,1337.7 324.618,1404.56 345,1470C345.24,1470.77 345.48,1471.54 345.728,1472.34C356.799,1507.76 370.207,1542.42 386,1576C386.128,1576.27 386.128,1576.27 386.773,1577.65C390.445,1585.47 394.204,1593.24 398,1601C398.456,1601.94 398.912,1602.88 399.381,1603.85C406.101,1617.67 413.376,1631.1 421.075,1644.4C422.036,1646.06 422.992,1647.73 423.946,1649.4C433.645,1666.38 443.935,1682.82 454.95,1698.98C457.042,1702.05 459.098,1705.15 461.152,1708.25C464.341,1713.05 467.616,1717.78 471,1722.44C471.541,1723.18 472.082,1723.93 472.64,1724.7C479.597,1734.26 486.784,1743.64 494,1753C494.524,1753.68 495.047,1754.36 495.587,1755.06C501.087,1762.2 506.762,1769.15 512.666,1775.97C515.644,1779.4 518.536,1782.88 521.375,1786.44C526.223,1792.42 531.504,1797.97 536.785,1803.57C539.11,1806.04 541.369,1808.54 543.563,1811.12C547.222,1815.39 551.252,1819.28 555.247,1823.23C558.084,1826.04 560.82,1828.86 563.375,1831.94C567.309,1836.58 571.838,1840.59 576.304,1844.71C580.098,1848.21 583.819,1851.76 587.438,1855.44C590.802,1858.84 594.248,1862.06 597.883,1865.16C599.928,1866.94 601.925,1868.76 603.916,1870.59C608.384,1874.7 612.935,1878.65 617.668,1882.47C620.865,1885.05 623.99,1887.7 627.095,1890.39C633.571,1896.01 640.187,1901.35 647.03,1906.51C649.324,1908.25 651.606,1910 653.887,1911.76C680.771,1932.43 708.891,1951.59 738,1969C738.924,1969.55 739.848,1970.11 740.799,1970.68C788.371,1999.04 838.134,2022.6 890,2042C890.662,2042.25 891.324,2042.5 892.007,2042.75C967.761,2071.16 1048.1,2088.16 1149,2096C1149.74,2096.04 1150.49,2096.09 1151.26,2096.13C1167.36,2097.03 1183.44,2097.2 1199.56,2097.19C1200.21,2097.19 1200.85,2097.19 1201.52,2097.19C1223.4,2097.18 1245.18,2096.78 1267,2095C1267.79,2094.94 1268.57,2094.87 1269.38,2094.81C1337.7,2089.27 1404.56,2076.38 1470,2056C1470.77,2055.76 1471.54,2055.52 1472.34,2055.27C1507.76,2044.2 1542.42,2030.79 1576,2015C1576.54,2014.75 1577.09,2014.49 1577.65,2014.23C1585.47,2010.56 1593.24,2006.8 1601,2003C1601.94,2002.54 1602.88,2002.09 1603.85,2001.62C1617.67,1994.9 1631.1,1987.62 1644.4,1979.92C1646.06,1978.96 1647.73,1978.01 1649.4,1977.05C1666.38,1967.36 1682.82,1957.07 1698.98,1946.05C1702.05,1943.96 1705.15,1941.9 1708.25,1939.85C1713.05,1936.66 1717.78,1933.38 1722.44,1930C1723.18,1929.46 1723.93,1928.92 1724.7,1928.36C1734.26,1921.4 1743.64,1914.22 1753,1907C1753.68,1906.48 1754.36,1905.95 1755.06,1905.41C1762.2,1899.91 1769.15,1894.24 1775.97,1888.33C1779.4,1885.36 1782.88,1882.46 1786.44,1879.62C1792.42,1874.78 1797.97,1869.5 1803.57,1864.22C1806.04,1861.89 1808.54,1859.63 1811.12,1857.44C1815.39,1853.78 1819.28,1849.75 1823.23,1845.75C1826.04,1842.92 1828.86,1840.18 1831.94,1837.62C1836.58,1833.69 1840.59,1829.16 1844.71,1824.7C1848.21,1820.9 1851.76,1817.18 1855.44,1813.56C1858.84,1810.2 1862.06,1806.75 1865.16,1803.12C1866.94,1801.07 1868.76,1799.08 1870.59,1797.08C1874.7,1792.62 1878.65,1788.07 1882.47,1783.33C1885.05,1780.13 1887.7,1777.01 1890.39,1773.9C1896.01,1767.43 1901.35,1760.81 1906.51,1753.97C1908.25,1751.68 1910,1749.39 1911.76,1747.11C1932.43,1720.23 1951.59,1692.11 1969,1663C1969.55,1662.08 1970.11,1661.15 1970.68,1660.2C1999.04,1612.63 2022.6,1562.87 2042,1511C2042.25,1510.34 2042.5,1509.68 2042.75,1508.99C2071.16,1433.24 2088.16,1352.9 2096,1252C2096.04,1251.26 2096.09,1250.51 2096.13,1249.75C2097.03,1233.64 2097.2,1217.56 2097.19,1201.44C2097.19,1200.79 2097.19,1200.15 2097.19,1199.48C2097.18,1177.6 2096.78,1155.82 2095,1134C2094.94,1133.21 2094.87,1132.43 2094.81,1131.62C2089.27,1063.3 2076.38,996.439 2056,931C2055.76,930.228 2055.52,929.457 2055.27,928.662C2044.2,893.245 2030.79,858.58 2015,825C2014.75,824.457 2014.49,823.913 2014.23,823.353C2010.56,815.535 2006.8,807.76 2003,800C2002.54,799.061 2002.09,798.122 2001.62,797.155C1994.9,783.332 1987.62,769.904 1979.92,756.603C1978.96,754.937 1978.01,753.267 1977.05,751.596C1967.36,734.617 1957.07,718.177 1946.05,702.021C1943.96,698.947 1941.9,695.849 1939.85,692.75C1936.66,687.951 1933.38,683.225 1930,678.563C1929.46,677.815 1928.92,677.068 1928.36,676.298C1921.4,666.742 1914.22,657.361 1907,648C1906.48,647.319 1905.95,646.638 1905.41,645.936C1899.91,638.796 1894.24,631.846 1888.33,625.035C1885.36,621.598 1882.46,618.116 1879.62,614.563C1874.78,608.582 1869.5,603.03 1864.22,597.434C1861.89,594.965 1859.63,592.462 1857.44,589.875C1853.78,585.61 1849.75,581.721 1845.75,577.775C1842.92,574.96 1840.18,572.141 1837.62,569.063C1833.69,564.422 1829.16,560.406 1824.7,556.289C1820.9,552.789 1817.18,549.244 1813.56,545.563C1810.2,542.16 1806.75,538.946 1803.12,535.836C1801.07,534.063 1799.08,532.244 1797.08,530.411C1792.62,526.298 1788.07,522.345 1783.33,518.533C1780.13,515.951 1777.01,513.298 1773.9,510.606C1767.43,504.991 1760.81,499.652 1753.97,494.493C1751.68,492.754 1749.39,490.999 1747.11,489.242C1720.23,468.573 1692.11,449.411 1663,432C1662.08,431.447 1661.15,430.894 1660.2,430.324C1612.63,401.957 1562.87,378.397 1511,359C1510.34,358.751 1509.68,358.503 1508.99,358.247C1433.24,329.839 1352.9,312.838 1252,305C1251.26,304.958 1250.51,304.915 1249.75,304.872C1233.64,303.972 1217.56,303.797 1201.44,303.813C1200.79,303.813 1200.15,303.813 1199.48,303.813C1177.6,303.825 1155.82,304.223 1134,306Z" style="fill-rule:nonzero;"/>
    </g>
</svg>
