<?xml version="1.0" encoding="UTF-8" standalone="no"?>
<!DOCTYPE svg PUBLIC "-//W3C//DTD SVG 1.1//EN" "http://www.w3.org/Graphics/SVG/1.1/DTD/svg11.dtd">
<svg width="100%" height="100%" viewBox="0 0 2400 2400" version="1.1" xmlns="http://www.w3.org/2000/svg" xmlns:xlink="http://www.w3.org/1999/xlink" xml:space="preserve" xmlns:serif="http://www.serif.com/" style="fill-rule:evenodd;clip-rule:evenodd;stroke-linecap:round;stroke-linejoin:round;stroke-miterlimit:1.5;">
    <g id="INK">
        <ellipse cx="1200" cy="1200" rx="1150.01" ry="1150" style="fill:none;stroke:black;stroke-width:17px;"/>
        <g transform="matrix(1,-1.25558e-16,1.22465e-16,1,-581.132,-566.977)">
            <g transform="matrix(89.1703,-35.1095,35.1095,89.1703,1386.43,863.605)">
                <path d="M0.212,-0.209C0.223,-0.175 0.243,-0.149 0.272,-0.132C0.301,-0.114 0.338,-0.105 0.383,-0.105C0.432,-0.105 0.471,-0.116 0.499,-0.138C0.527,-0.159 0.541,-0.189 0.541,-0.226C0.541,-0.255 0.532,-0.278 0.513,-0.295C0.494,-0.312 0.465,-0.323 0.427,-0.328L0.321,-0.34C0.246,-0.349 0.19,-0.374 0.151,-0.413C0.112,-0.452 0.093,-0.504 0.093,-0.571C0.093,-0.621 0.105,-0.664 0.13,-0.701C0.154,-0.737 0.188,-0.765 0.232,-0.786C0.276,-0.807 0.327,-0.817 0.386,-0.817C0.445,-0.817 0.496,-0.807 0.54,-0.788C0.584,-0.768 0.619,-0.74 0.645,-0.704C0.67,-0.667 0.685,-0.623 0.688,-0.571L0.562,-0.571C0.552,-0.611 0.532,-0.642 0.502,-0.663C0.471,-0.684 0.433,-0.695 0.386,-0.695C0.335,-0.695 0.294,-0.684 0.265,-0.662C0.236,-0.64 0.221,-0.61 0.221,-0.572C0.221,-0.543 0.231,-0.521 0.25,-0.504C0.269,-0.487 0.298,-0.475 0.335,-0.47L0.441,-0.458C0.516,-0.449 0.573,-0.425 0.612,-0.386C0.65,-0.347 0.669,-0.294 0.669,-0.227C0.669,-0.178 0.657,-0.135 0.634,-0.099C0.61,-0.062 0.577,-0.034 0.534,-0.014C0.491,0.007 0.441,0.017 0.383,0.017C0.325,0.017 0.274,0.008 0.23,-0.01C0.186,-0.028 0.151,-0.054 0.126,-0.088C0.101,-0.121 0.086,-0.162 0.083,-0.209L0.212,-0.209Z" style="fill-rule:nonzero;"/>
            </g>
            <g transform="matrix(93.3304,-21.7591,21.7591,93.3304,1521.94,815.81)">
                <path d="M0.31,-0L0.31,-0.676L0.055,-0.676L0.055,-0.8L0.695,-0.8L0.695,-0.676L0.44,-0.676L0.44,-0L0.31,-0Z" style="fill-rule:nonzero;"/>
            </g>
            <g transform="matrix(95.5268,-7.65834,7.65834,95.5268,1662.99,788.243)">
                <path d="M0.141,-0L0.141,-0.8L0.665,-0.8L0.665,-0.68L0.272,-0.68L0.272,-0.458L0.615,-0.458L0.615,-0.345L0.272,-0.345L0.272,-0.12L0.655,-0.12L0.655,-0L0.141,-0Z" style="fill-rule:nonzero;"/>
            </g>
            <g transform="matrix(95.6275,6.27838,-6.27838,95.6275,1806.58,781.495)">
                <path d="M0.129,-0L0.129,-0.8L0.445,-0.8C0.498,-0.8 0.544,-0.79 0.583,-0.771C0.622,-0.751 0.652,-0.723 0.674,-0.687C0.695,-0.651 0.706,-0.608 0.706,-0.559C0.706,-0.512 0.695,-0.47 0.674,-0.435C0.652,-0.399 0.622,-0.371 0.583,-0.352C0.544,-0.333 0.498,-0.323 0.445,-0.323L0.259,-0.323L0.259,-0L0.129,-0ZM0.259,-0.442L0.448,-0.442C0.487,-0.442 0.518,-0.452 0.541,-0.473C0.564,-0.494 0.575,-0.522 0.575,-0.559C0.575,-0.595 0.564,-0.623 0.541,-0.645C0.518,-0.666 0.487,-0.676 0.448,-0.676L0.259,-0.676L0.259,-0.442Z" style="fill-rule:nonzero;"/>
            </g>
            <g transform="matrix(93.6949,20.132,-20.132,93.6949,1949.61,795.526)">
                <path d="M0.129,-0L0.129,-0.8L0.445,-0.8C0.498,-0.8 0.544,-0.79 0.583,-0.771C0.622,-0.751 0.652,-0.723 0.674,-0.687C0.695,-0.651 0.706,-0.608 0.706,-0.559C0.706,-0.512 0.695,-0.47 0.674,-0.435C0.652,-0.399 0.622,-0.371 0.583,-0.352C0.544,-0.333 0.498,-0.323 0.445,-0.323L0.259,-0.323L0.259,-0L0.129,-0ZM0.259,-0.442L0.448,-0.442C0.487,-0.442 0.518,-0.452 0.541,-0.473C0.564,-0.494 0.575,-0.522 0.575,-0.559C0.575,-0.595 0.564,-0.623 0.541,-0.645C0.518,-0.666 0.487,-0.676 0.448,-0.676L0.259,-0.676L0.259,-0.442Z" style="fill-rule:nonzero;"/>
            </g>
            <g transform="matrix(89.7773,33.5272,-33.5272,89.7773,2089.13,830.365)">
                <path d="M0.141,-0L0.141,-0.8L0.665,-0.8L0.665,-0.68L0.272,-0.68L0.272,-0.458L0.615,-0.458L0.615,-0.345L0.272,-0.345L0.272,-0.12L0.655,-0.12L0.655,-0L0.141,-0Z" style="fill-rule:nonzero;"/>
            </g>
        </g>
        <g transform="matrix(1,0,0,1,-757.108,-662.318)">
            <g transform="matrix(67.5784,74.7647,-74.7647,67.5784,1143.97,2540.72)">
                <path d="M0.114,-0L0.114,-0.8L0.433,-0.8C0.485,-0.8 0.53,-0.79 0.569,-0.771C0.608,-0.752 0.638,-0.724 0.659,-0.689C0.68,-0.654 0.691,-0.612 0.691,-0.563C0.691,-0.518 0.68,-0.479 0.659,-0.445C0.637,-0.411 0.607,-0.385 0.568,-0.366C0.529,-0.347 0.484,-0.337 0.433,-0.337L0.245,-0.337L0.245,-0L0.114,-0ZM0.56,-0L0.329,-0.359L0.474,-0.359L0.711,-0L0.56,-0ZM0.245,-0.449L0.432,-0.449C0.471,-0.449 0.502,-0.46 0.525,-0.481C0.548,-0.501 0.56,-0.529 0.56,-0.563C0.56,-0.597 0.548,-0.624 0.525,-0.645C0.502,-0.666 0.471,-0.676 0.432,-0.676L0.245,-0.676L0.245,-0.449Z" style="fill-rule:nonzero;"/>
            </g>
            <g transform="matrix(75.4156,66.8512,-66.8512,75.4156,1225.16,2627.52)">
                <path d="M0.141,-0L0.141,-0.8L0.665,-0.8L0.665,-0.68L0.272,-0.68L0.272,-0.458L0.615,-0.458L0.615,-0.345L0.272,-0.345L0.272,-0.12L0.655,-0.12L0.655,-0L0.141,-0Z" style="fill-rule:nonzero;"/>
            </g>
            <g transform="matrix(82.3508,58.0942,-58.0942,82.3508,1315.49,2704.75)">
                <path d="M0.093,-0L0.093,-0.8L0.342,-0.8C0.458,-0.8 0.546,-0.766 0.607,-0.698C0.667,-0.63 0.697,-0.531 0.697,-0.4C0.697,-0.27 0.667,-0.171 0.607,-0.103C0.546,-0.034 0.458,-0 0.342,-0L0.093,-0ZM0.224,-0.123L0.342,-0.123C0.416,-0.123 0.472,-0.146 0.51,-0.193C0.547,-0.24 0.566,-0.309 0.566,-0.4C0.566,-0.492 0.547,-0.561 0.51,-0.608C0.472,-0.654 0.416,-0.677 0.342,-0.677L0.224,-0.677L0.224,-0.123Z" style="fill-rule:nonzero;"/>
            </g>
            <g transform="matrix(88.2438,48.6788,-48.6788,88.2438,1413.93,2771.41)">
                <path d="M0.075,-0L0.075,-0.8L0.277,-0.8L0.372,-0.351L0.384,-0.351L0.479,-0.8L0.675,-0.8L0.675,-0L0.555,-0L0.555,-0.459L0.561,-0.699L0.549,-0.699L0.458,-0.265L0.292,-0.265L0.201,-0.699L0.189,-0.699L0.195,-0.459L0.195,-0L0.075,-0Z" style="fill-rule:nonzero;"/>
            </g>
            <g transform="matrix(93.1585,38.4458,-38.4458,93.1585,1519.12,2826.66)">
                <path d="M0.375,0.017C0.27,0.017 0.19,-0.018 0.135,-0.089C0.08,-0.16 0.053,-0.263 0.053,-0.4C0.053,-0.537 0.08,-0.64 0.135,-0.711C0.19,-0.782 0.27,-0.817 0.375,-0.817C0.48,-0.817 0.56,-0.782 0.615,-0.711C0.67,-0.64 0.697,-0.537 0.697,-0.4C0.697,-0.263 0.67,-0.16 0.615,-0.089C0.56,-0.018 0.48,0.017 0.375,0.017ZM0.375,-0.106C0.44,-0.106 0.488,-0.13 0.519,-0.179C0.55,-0.227 0.566,-0.301 0.566,-0.4C0.566,-0.499 0.55,-0.573 0.519,-0.622C0.488,-0.67 0.44,-0.694 0.375,-0.694C0.31,-0.694 0.262,-0.67 0.231,-0.622C0.2,-0.573 0.184,-0.499 0.184,-0.4C0.184,-0.301 0.2,-0.227 0.231,-0.179C0.262,-0.13 0.31,-0.106 0.375,-0.106Z" style="fill-rule:nonzero;"/>
            </g>
            <g transform="matrix(96.9068,27.6705,-27.6705,96.9068,1630,2869.76)">
                <path d="M0.085,-0L0.085,-0.8L0.308,-0.8L0.536,-0.086L0.549,-0.086L0.543,-0.298L0.543,-0.8L0.665,-0.8L0.665,-0L0.442,-0L0.214,-0.714L0.201,-0.714L0.207,-0.502L0.207,-0L0.085,-0Z" style="fill-rule:nonzero;"/>
            </g>
            <g transform="matrix(99.4407,16.3752,-16.3752,99.4407,1744.87,2900.09)">
                <path d="M0.093,-0L0.093,-0.8L0.342,-0.8C0.458,-0.8 0.546,-0.766 0.607,-0.698C0.667,-0.63 0.697,-0.531 0.697,-0.4C0.697,-0.27 0.667,-0.171 0.607,-0.103C0.546,-0.034 0.458,-0 0.342,-0L0.093,-0ZM0.224,-0.123L0.342,-0.123C0.416,-0.123 0.472,-0.146 0.51,-0.193C0.547,-0.24 0.566,-0.309 0.566,-0.4C0.566,-0.492 0.547,-0.561 0.51,-0.608C0.472,-0.654 0.416,-0.677 0.342,-0.677L0.224,-0.677L0.224,-0.123Z" style="fill-rule:nonzero;"/>
            </g>
            <g transform="matrix(43.7192,-1.64239,1.64239,43.7192,1979.98,2891.78)">
                <path d="M0.375,-0.139C0.308,-0.139 0.256,-0.157 0.219,-0.194C0.182,-0.231 0.164,-0.283 0.164,-0.35C0.164,-0.417 0.182,-0.469 0.219,-0.506C0.256,-0.543 0.308,-0.561 0.375,-0.561C0.442,-0.561 0.494,-0.543 0.531,-0.506C0.568,-0.469 0.586,-0.417 0.586,-0.35C0.586,-0.283 0.568,-0.231 0.531,-0.194C0.494,-0.157 0.442,-0.139 0.375,-0.139Z" style="fill-rule:nonzero;"/>
            </g>
            <g transform="matrix(98.3753,-21.8837,21.8837,98.3753,2150.69,2903.64)">
                <path d="M0.375,0.017C0.27,0.017 0.19,-0.018 0.135,-0.089C0.08,-0.16 0.053,-0.263 0.053,-0.4C0.053,-0.537 0.08,-0.64 0.135,-0.711C0.19,-0.782 0.27,-0.817 0.375,-0.817C0.48,-0.817 0.56,-0.782 0.615,-0.711C0.67,-0.64 0.697,-0.537 0.697,-0.4C0.697,-0.263 0.67,-0.16 0.615,-0.089C0.56,-0.018 0.48,0.017 0.375,0.017ZM0.375,-0.106C0.44,-0.106 0.488,-0.13 0.519,-0.179C0.55,-0.227 0.566,-0.301 0.566,-0.4C0.566,-0.499 0.55,-0.573 0.519,-0.622C0.488,-0.67 0.44,-0.694 0.375,-0.694C0.31,-0.694 0.262,-0.67 0.231,-0.622C0.2,-0.573 0.184,-0.499 0.184,-0.4C0.184,-0.301 0.2,-0.227 0.231,-0.179C0.262,-0.13 0.31,-0.106 0.375,-0.106Z" style="fill-rule:nonzero;"/>
            </g>
            <g transform="matrix(95.1501,-33.2122,33.2122,95.1501,2266.35,2875.54)">
                <path d="M0.114,-0L0.114,-0.8L0.433,-0.8C0.485,-0.8 0.53,-0.79 0.569,-0.771C0.608,-0.752 0.638,-0.724 0.659,-0.689C0.68,-0.654 0.691,-0.612 0.691,-0.563C0.691,-0.518 0.68,-0.479 0.659,-0.445C0.637,-0.411 0.607,-0.385 0.568,-0.366C0.529,-0.347 0.484,-0.337 0.433,-0.337L0.245,-0.337L0.245,-0L0.114,-0ZM0.56,-0L0.329,-0.359L0.474,-0.359L0.711,-0L0.56,-0ZM0.245,-0.449L0.432,-0.449C0.471,-0.449 0.502,-0.46 0.525,-0.481C0.548,-0.501 0.56,-0.529 0.56,-0.563C0.56,-0.597 0.548,-0.624 0.525,-0.645C0.502,-0.666 0.471,-0.676 0.432,-0.676L0.245,-0.676L0.245,-0.449Z" style="fill-rule:nonzero;"/>
            </g>
            <g transform="matrix(90.8374,-43.6482,43.6482,90.8374,2377.9,2834.42)">
                <path d="M0.141,-0L0.141,-0.8L0.665,-0.8L0.665,-0.68L0.272,-0.68L0.272,-0.458L0.615,-0.458L0.615,-0.345L0.272,-0.345L0.272,-0.12L0.655,-0.12L0.655,-0L0.141,-0Z" style="fill-rule:nonzero;"/>
            </g>
            <g transform="matrix(85.5002,-53.3509,53.3509,85.5002,2483.98,2780.99)">
                <path d="M0.355,0.016C0.264,0.016 0.194,-0.02 0.143,-0.091C0.092,-0.162 0.067,-0.265 0.067,-0.4C0.067,-0.537 0.095,-0.64 0.15,-0.711C0.205,-0.782 0.286,-0.817 0.392,-0.817C0.45,-0.817 0.5,-0.806 0.543,-0.783C0.585,-0.76 0.618,-0.728 0.644,-0.686C0.669,-0.644 0.683,-0.594 0.688,-0.535L0.564,-0.535C0.553,-0.585 0.534,-0.624 0.506,-0.652C0.477,-0.68 0.439,-0.694 0.392,-0.694C0.327,-0.694 0.278,-0.67 0.246,-0.622C0.214,-0.573 0.198,-0.499 0.198,-0.4C0.198,-0.297 0.214,-0.222 0.245,-0.173C0.276,-0.124 0.325,-0.099 0.391,-0.099C0.421,-0.099 0.448,-0.107 0.473,-0.124C0.498,-0.141 0.517,-0.163 0.532,-0.192C0.546,-0.22 0.553,-0.251 0.553,-0.286L0.368,-0.286L0.368,-0.406L0.669,-0.406L0.669,-0L0.553,-0L0.553,-0.07L0.521,-0.07C0.509,-0.043 0.488,-0.022 0.459,-0.007C0.43,0.009 0.395,0.016 0.355,0.016Z" style="fill-rule:nonzero;"/>
            </g>
            <g transform="matrix(79.0231,-62.5455,62.5455,79.0231,2583.52,2716.04)">
                <path d="M0.375,0.017C0.27,0.017 0.19,-0.018 0.135,-0.089C0.08,-0.16 0.053,-0.263 0.053,-0.4C0.053,-0.537 0.08,-0.64 0.135,-0.711C0.19,-0.782 0.27,-0.817 0.375,-0.817C0.48,-0.817 0.56,-0.782 0.615,-0.711C0.67,-0.64 0.697,-0.537 0.697,-0.4C0.697,-0.263 0.67,-0.16 0.615,-0.089C0.56,-0.018 0.48,0.017 0.375,0.017ZM0.375,-0.106C0.44,-0.106 0.488,-0.13 0.519,-0.179C0.55,-0.227 0.566,-0.301 0.566,-0.4C0.566,-0.499 0.55,-0.573 0.519,-0.622C0.488,-0.67 0.44,-0.694 0.375,-0.694C0.31,-0.694 0.262,-0.67 0.231,-0.622C0.2,-0.573 0.184,-0.499 0.184,-0.4C0.184,-0.301 0.2,-0.227 0.231,-0.179C0.262,-0.13 0.31,-0.106 0.375,-0.106Z" style="fill-rule:nonzero;"/>
            </g>
            <g transform="matrix(71.5665,-70.9565,70.9565,71.5665,2675.25,2640.36)">
                <path d="M0.085,-0L0.085,-0.8L0.308,-0.8L0.536,-0.086L0.549,-0.086L0.543,-0.298L0.543,-0.8L0.665,-0.8L0.665,-0L0.442,-0L0.214,-0.714L0.201,-0.714L0.207,-0.502L0.207,-0L0.085,-0Z" style="fill-rule:nonzero;"/>
            </g>
        </g>
        <circle cx="1200" cy="1200" r="1106" style="fill:none;stroke:black;stroke-width:6px;"/>
        <circle cx="1200" cy="1200" r="930" style="fill:none;stroke:black;stroke-width:13px;"/>
        <circle cx="1200" cy="1200" r="901" style="fill:none;stroke:black;stroke-width:5px;"/>
        <path d="M2215,1170.3L2244.7,1200L2215,1229.7L2185.3,1200L2215,1170.3Z" style="fill:rgb(23,19,15);"/>
        <path d="M185,1170.3L214.698,1200L185,1229.7L155.302,1200L185,1170.3Z" style="fill:rgb(23,19,15);"/>
        <circle cx="1200" cy="1200" r="886" style="fill:none;"/>
        <clipPath id="_clip1">
            <circle cx="1200" cy="1200" r="886"/>
        </clipPath>
        <g clip-path="url(#_clip1)">
            <clipPath id="_clip2">
                <rect x="296.311" y="787.572" width="1789.69" height="243.731"/>
            </clipPath>
            <g clip-path="url(#_clip2)">
                <path d="M2086,1007.38C2088.84,924.99 2091.26,813.528 2057.43,771.231C1633.5,241.171 563.978,316.098 358.129,723.881C321.364,796.711 288.776,914.032 297.843,985.986C300.199,1004.68 305.365,1020.31 314,1031.3C314,1031.3 625.916,1024.67 706.566,1022.02C742.302,1020.84 864.191,1017.59 953.194,1018.5C968.549,1018.66 970.82,1020.39 1176.8,1012.15C1179.37,1012.05 1191.82,1010.99 1221.46,1009.93C1246.57,1009.04 1224.04,1010.26 1272.9,1009.45C1285.15,984.75 1285.97,984.503 1308.29,934.073C1316.63,915.222 1307.59,935.315 1335.15,868.248C1338.05,861.186 1348.44,833.852 1355.94,812.685C1359.96,801.355 1371.16,809.509 1383.19,810.503C1407.13,812.481 1626.11,824.867 1685,810.144C1695.83,807.435 1695.1,806.063 1705.69,803.704C1714.45,816.845 1706.74,803.998 1720.82,828.732C1735.28,854.148 1748.71,879.585 1776.4,923.545C1794.1,951.644 1796.11,955.46 1816.99,987.388C1820.28,992.418 1824.14,1005.8 1835.16,1004.98C1838.37,1004.75 2085.85,1011.69 2086,1007.38Z" style="fill:none;stroke:black;stroke-width:13px;stroke-miterlimit:0.96;"/>
            </g>
            <clipPath id="_clip3">
                <rect x="314" y="1131.2" width="1790.78" height="68.803"/>
            </clipPath>
            <g clip-path="url(#_clip3)">
                <path d="M320.731,1343.42C404.73,1305.93 528.787,1339.89 611.912,1329.51C714.473,1316.68 880.754,1418.49 1102.75,1359.3C1116.59,1355.6 1338.15,1346.42 1366.61,1347.95C1492.21,1354.68 1505.69,1362.32 1628.37,1337.79C1648.3,1333.8 1780.37,1305.11 1922.88,1290.11C1948.38,1287.43 2023.03,1268.39 2073.66,1273.16C2116.26,1277.18 2104,1230.38 2100.2,1185.07C2098.22,1161.48 2100.91,1140.93 2086,1139.5C2024.53,1133.6 1976.3,1131.29 1940.58,1131.2C1771.61,1130.81 1783.75,1149.32 1717.19,1146.96C1677.9,1145.56 1507.12,1157.5 1399.15,1165.68C1309.85,1172.46 1230.94,1160.7 1225.14,1160.54C1123.47,1157.72 1030.66,1175.76 963.627,1173.91C879.314,1171.59 824.212,1171.65 756.823,1167.25C626.51,1158.74 565.713,1181.7 491.698,1185.87C365.311,1192.99 345.36,1165.94 314,1162.72" style="fill:none;stroke:black;stroke-width:9px;stroke-miterlimit:0.96;"/>
            </g>
            <clipPath id="_clip4">
                <rect x="314" y="1268.8" width="1777.47" height="136.018"/>
            </clipPath>
            <g clip-path="url(#_clip4)">
                <path d="M343.448,1489.02C412.356,1516.23 775.578,1461.46 879.679,1486.9C1254.88,1578.62 1260.59,1462.93 1643.95,1496.9C1858.98,1515.96 2081.89,1482.86 2086,1430.3C2086.64,1422.09 2097.97,1274.36 2086,1269.87C2076.11,1266.16 2009.75,1273.26 1957.52,1273.35C1907.98,1273.44 1847.49,1264.92 1788.48,1271.24C1675.96,1283.3 1563.91,1314.09 1508.89,1314.09C1297.02,1314.09 1278.03,1288.02 1083.62,1302.31C815.81,1322 825.794,1289.73 526.83,1316.91C400.859,1328.36 414.249,1318.68 314,1317.52" style="fill:none;stroke:black;stroke-width:9px;stroke-miterlimit:0.96;"/>
            </g>
            <clipPath id="_clip5">
                <rect x="340.825" y="1456.32" width="1785.16" height="112.02"/>
            </clipPath>
            <g clip-path="url(#_clip5)">
                <path d="M340.825,1479.24C432.785,1512.55 673.315,1425.34 890.014,1468.68C1032.17,1497.11 1126.91,1483.64 1202.73,1476.27C1337.34,1463.18 1416.2,1475.82 1642.7,1494.65C1871.67,1513.69 1957.98,1434.03 2104.78,1462.7C2159.31,1473.35 2091.47,1575.94 2091.47,1575.94C2078.82,1604.59 2074.28,1643.12 2040.7,1643.01C1984.99,1642.81 1896.41,1653.02 1832.14,1642.65C1400.58,1573.04 1388.7,1702.52 1051.94,1642.65C780.532,1594.4 441.958,1634.51 390.845,1613.21" style="fill:none;stroke:black;stroke-width:9px;stroke-miterlimit:0.96;"/>
            </g>
            <clipPath id="_clip6">
                <rect x="389.103" y="1589.93" width="1636.91" height="95.696"/>
            </clipPath>
            <g clip-path="url(#_clip6)">
                <path d="M428.316,1606.52C657.382,1644.69 652.932,1586.27 884.047,1605.14C997.797,1614.42 1003.12,1615.67 1117.52,1627.93C1386.36,1656.73 1411.11,1585.41 1593.94,1615.88C1602.68,1617.34 1672.28,1626.35 1767.91,1630.66C1888.53,1636.1 1917.69,1605.81 2008.44,1626.3C2055.16,1636.85 1996.97,1632.95 1969.99,1673.43C1941.89,1715.58 1930.56,1783.05 1822.5,1767.62C1769.63,1760.07 1694.81,1783.53 1583.95,1785.79C1525.62,1786.97 1454.98,1779.34 1375.16,1778.82C1301.44,1778.35 1214.73,1789.52 1119.76,1787.05C1068.53,1785.72 897.302,1765.15 720.215,1754.53C602.731,1747.48 469.598,1764.69 453.334,1732.29C444.217,1714.12 422.638,1649.82 400.052,1612.43C370.392,1563.32 408.214,1610.54 428.316,1606.52Z" style="fill:none;stroke:black;stroke-width:9px;stroke-miterlimit:0.96;"/>
            </g>
            <clipPath id="_clip7">
                <rect x="476.374" y="1731.26" width="1443.17" height="65.308"/>
            </clipPath>
            <g clip-path="url(#_clip7)">
                <path d="M492.131,1750.22C675.063,1729.13 782.832,1722.2 877.786,1747.38C963.931,1770.23 1063.14,1783.57 1233.4,1770.06C1327.98,1762.55 1394.66,1752.13 1446.57,1751.71C1532.68,1751.01 1581.65,1763.28 1675.57,1755.06C1899.53,1735.47 1920.8,1729.26 1919.5,1747.5C1918.58,1760.36 1857.09,1863.09 1749.17,1910.3C1654.24,1951.83 1637.12,2039.83 1306.21,2094.98C1220.02,2109.35 959.65,2088.98 923.471,2070.89C779.89,1999.1 779.105,2001.95 661.173,1922.35C646.482,1912.43 590.087,1896.33 562.142,1835.36C555.656,1821.21 472.804,1755.43 476.494,1744.36" style="fill:none;stroke:black;stroke-width:9px;stroke-miterlimit:0.96;"/>
            </g>
        </g>
        <circle cx="874" cy="720" r="108" style="fill:none;stroke:black;stroke-width:10px;stroke-miterlimit:0.96;"/>
        <path d="M481.842,1532.87C505.238,1531.85 518.279,1532.28 538.588,1531.71" style="fill:none;stroke:black;stroke-width:7px;stroke-miterlimit:0.96;"/>
        <path d="M837.769,1529.51C855.936,1529.82 874.102,1530.13 892.268,1530.44" style="fill:none;stroke:black;stroke-width:7px;stroke-miterlimit:0.96;"/>
        <path d="M896.492,1507.51C915.367,1507.77 934.242,1508.02 953.117,1508.27" style="fill:none;stroke:black;stroke-width:7px;stroke-miterlimit:0.96;"/>
        <path d="M1129.56,1531.55L1168.74,1531.71" style="fill:none;stroke:black;stroke-width:7px;stroke-miterlimit:0.96;"/>
        <path d="M1161.03,1509.23C1187.31,1508.78 1213.59,1508.34 1239.87,1507.89" style="fill:none;stroke:black;stroke-width:7px;stroke-miterlimit:0.96;"/>
        <path d="M1504.75,1565.42C1532.61,1565.79 1534.18,1565.79 1561.94,1566.3" style="fill:none;stroke:black;stroke-width:7px;stroke-miterlimit:0.96;"/>
        <path d="M1540.9,1582.51C1556.11,1582.69 1571.32,1582.87 1586.53,1583.05" style="fill:none;stroke:black;stroke-width:7px;stroke-miterlimit:0.96;"/>
        <path d="M1772.03,1582.88C1805.73,1582.31 1806.03,1582.42 1849.4,1583.11" style="fill:none;stroke:black;stroke-width:7px;stroke-miterlimit:0.96;"/>
        <path d="M476.681,1269.94L476.494,1271.95" style="fill:none;stroke:black;stroke-width:8px;stroke-miterlimit:0.96;"/>
        <path d="M483.251,1234.67L480.508,1234.48" style="fill:none;stroke:black;stroke-width:8px;stroke-miterlimit:0.96;"/>
        <path d="M511.843,1274.02L511.288,1274.63" style="fill:none;stroke:black;stroke-width:8px;stroke-miterlimit:0.96;"/>
        <path d="M684.105,1228.65L679.908,1230.47" style="fill:none;stroke:black;stroke-width:8px;stroke-miterlimit:0.96;"/>
        <path d="M613.424,1241.94L611.657,1241.17" style="fill:none;stroke:black;stroke-width:8px;stroke-miterlimit:0.96;"/>
        <path d="M1020.99,1254.88L1019.83,1257.23" style="fill:none;stroke:black;stroke-width:8px;stroke-miterlimit:0.96;"/>
        <path d="M1027.38,1209.68L1025.18,1209.06" style="fill:none;stroke:black;stroke-width:8px;stroke-miterlimit:0.96;"/>
        <path d="M1367.29,1241.23L1367.77,1241.17" style="fill:none;stroke:black;stroke-width:8px;stroke-miterlimit:0.96;"/>
        <path d="M1185.26,1229.71L1184.43,1230.47" style="fill:none;stroke:black;stroke-width:8px;stroke-miterlimit:0.96;"/>
        <path d="M1597.8,1247.08L1597.95,1246.53" style="fill:none;stroke:black;stroke-width:8px;stroke-miterlimit:0.96;"/>
        <path d="M1636.16,1191.25L1634.08,1190.32" style="fill:none;stroke:black;stroke-width:8px;stroke-miterlimit:0.96;"/>
        <path d="M1771.84,1212.17L1767.91,1213.07" style="fill:none;stroke:black;stroke-width:8px;stroke-miterlimit:0.96;"/>
        <path d="M1920.66,1169.63L1920.47,1167.57" style="fill:none;stroke:black;stroke-width:8px;stroke-miterlimit:0.96;"/>
        <path d="M1922.61,1234.5L1924.49,1231.81" style="fill:none;stroke:black;stroke-width:10px;stroke-miterlimit:0.96;"/>
        <path d="M421.095,1251.33L418.949,1249.2" style="fill:none;stroke:black;stroke-width:10px;stroke-miterlimit:0.96;"/>
        <path d="M613.779,1267.11L614.334,1269.28" style="fill:none;stroke:black;stroke-width:10px;stroke-miterlimit:0.96;"/>
        <path d="M611.648,1201L608.981,1199.69" style="fill:none;stroke:black;stroke-width:10px;stroke-miterlimit:0.96;"/>
        <path d="M795.453,1221.03L799.013,1217.09" style="fill:none;stroke:black;stroke-width:10px;stroke-miterlimit:0.96;"/>
        <path d="M818.184,1250.8L817.748,1250.54" style="fill:none;stroke:black;stroke-width:10px;stroke-miterlimit:0.96;"/>
        <path d="M913.195,1200.29L910.088,1202.36" style="fill:none;stroke:black;stroke-width:10px;stroke-miterlimit:0.96;"/>
        <path d="M884.958,1238.39L880.646,1238.5" style="fill:none;stroke:black;stroke-width:10px;stroke-miterlimit:0.96;"/>
        <path d="M1070.72,1235.38L1069.34,1235.82" style="fill:none;stroke:black;stroke-width:10px;stroke-miterlimit:0.96;"/>
        <path d="M1345.98,1268.17L1345.02,1267.94" style="fill:none;stroke:black;stroke-width:10px;stroke-miterlimit:0.96;"/>
        <path d="M1363.2,1243.36L1362.42,1241.17" style="fill:none;stroke:black;stroke-width:10px;stroke-miterlimit:0.96;"/>
        <path d="M1395.35,1249.74L1391.86,1249.2" style="fill:none;stroke:black;stroke-width:10px;stroke-miterlimit:0.96;"/>
        <path d="M1409.2,1267.99L1407.92,1267.94" style="fill:none;stroke:black;stroke-width:10px;stroke-miterlimit:0.96;"/>
        <path d="M1407.07,1269.59L1403.9,1266.6" style="fill:none;stroke:black;stroke-width:10px;stroke-miterlimit:0.96;"/>
        <path d="M1515.22,1268.17L1514.98,1267.94" style="fill:none;stroke:black;stroke-width:10px;stroke-miterlimit:0.96;"/>
        <path d="M1570.27,1241.59L1567.17,1242.51" style="fill:none;stroke:black;stroke-width:10px;stroke-miterlimit:0.96;"/>
        <path d="M1484.68,1197.28L1484.2,1195.67" style="fill:none;stroke:black;stroke-width:10px;stroke-miterlimit:0.96;"/>
        <path d="M1143.17,1179.38L1142.94,1179.61" style="fill:none;stroke:black;stroke-width:10px;stroke-miterlimit:0.96;"/>
        <path d="M1719.98,1249.91L1722.41,1247.86" style="fill:none;stroke:black;stroke-width:10px;stroke-miterlimit:0.96;"/>
        <path d="M1743.42,1240.52L1739.81,1242.51" style="fill:none;stroke:black;stroke-width:10px;stroke-miterlimit:0.96;"/>
        <path d="M1786.58,1170.87L1786.64,1170.25" style="fill:none;stroke:black;stroke-width:10px;stroke-miterlimit:0.96;"/>
        <path d="M2010.16,1191.96L2006.12,1193" style="fill:none;stroke:black;stroke-width:13px;stroke-miterlimit:0.96;"/>
        <path d="M561.391,1263.21L559.465,1265.26" style="fill:none;stroke:black;stroke-width:13px;stroke-miterlimit:0.96;"/>
        <path d="M554.642,1213.76L552.774,1211.73" style="fill:none;stroke:black;stroke-width:13px;stroke-miterlimit:0.96;"/>
        <path d="M930.598,1266.57L930.162,1265.26" style="fill:none;stroke:black;stroke-width:13px;stroke-miterlimit:0.96;"/>
        <path d="M1351.31,1226.88L1347.7,1221.1" style="fill:none;stroke:black;stroke-width:13px;stroke-miterlimit:0.96;"/>
        <path d="M1532.27,1187.18L1532.38,1187.64" style="fill:none;stroke:black;stroke-width:13px;stroke-miterlimit:0.96;"/>
        <path d="M1551.81,1183.63L1555.13,1180.95" style="fill:none;stroke:black;stroke-width:13px;stroke-miterlimit:0.96;"/>
        <path d="M1830.27,1184.52L1832.14,1183.63" style="fill:none;stroke:black;stroke-width:13px;stroke-miterlimit:0.96;"/>
        <path d="M1853.17,1184.16L1852.22,1183.63" style="fill:none;stroke:black;stroke-width:13px;stroke-miterlimit:0.96;"/>
        <path d="M1830.8,1165.73L1830.81,1160.88" style="fill:none;stroke:black;stroke-width:13px;stroke-miterlimit:0.96;"/>
        <path d="M1680.02,1207.2L1679.58,1206.38" style="fill:none;stroke:black;stroke-width:13px;stroke-miterlimit:0.96;"/>
        <path d="M1133.94,1257.18L1129.56,1257.23" style="fill:none;stroke:black;stroke-width:13px;stroke-miterlimit:0.96;"/>
        <path d="M1263.76,1195.86L1263.39,1197.01" style="fill:none;stroke:black;stroke-width:11px;stroke-miterlimit:0.96;"/>
        <path d="M353.078,1212.17L350.698,1209.06" style="fill:none;stroke:black;stroke-width:11px;stroke-miterlimit:0.96;"/>
        <path d="M538.837,1228.29L532.7,1227.79" style="fill:none;stroke:black;stroke-width:11px;stroke-miterlimit:0.96;"/>
        <path d="M564.41,1230.78L560.804,1230.47" style="fill:none;stroke:black;stroke-width:11px;stroke-miterlimit:0.96;"/>
        <path d="M703.462,1180.44L699.982,1179.61" style="fill:none;stroke:black;stroke-width:11px;stroke-miterlimit:0.96;"/>
        <path d="M726.904,1224.57L726.747,1225.11" style="fill:none;stroke:black;stroke-width:11px;stroke-miterlimit:0.96;"/>
        <path d="M1293.06,1263.03L1292.83,1258.57" style="fill:none;stroke:black;stroke-width:7px;stroke-miterlimit:0.96;"/>
    </g>
    <g id="INK-EXPORT">
        <ellipse cx="1200" cy="1200" rx="1150.01" ry="1150" style="fill:none;stroke:black;stroke-width:17px;"/>
        <g transform="matrix(1,-1.25558e-16,1.22465e-16,1,-581.132,-566.977)">
            <g transform="matrix(89.1703,-35.1095,35.1095,89.1703,1386.43,863.605)">
                <path d="M0.212,-0.209C0.223,-0.175 0.243,-0.149 0.272,-0.132C0.301,-0.114 0.338,-0.105 0.383,-0.105C0.432,-0.105 0.471,-0.116 0.499,-0.138C0.527,-0.159 0.541,-0.189 0.541,-0.226C0.541,-0.255 0.532,-0.278 0.513,-0.295C0.494,-0.312 0.465,-0.323 0.427,-0.328L0.321,-0.34C0.246,-0.349 0.19,-0.374 0.151,-0.413C0.112,-0.452 0.093,-0.504 0.093,-0.571C0.093,-0.621 0.105,-0.664 0.13,-0.701C0.154,-0.737 0.188,-0.765 0.232,-0.786C0.276,-0.807 0.327,-0.817 0.386,-0.817C0.445,-0.817 0.496,-0.807 0.54,-0.788C0.584,-0.768 0.619,-0.74 0.645,-0.704C0.67,-0.667 0.685,-0.623 0.688,-0.571L0.562,-0.571C0.552,-0.611 0.532,-0.642 0.502,-0.663C0.471,-0.684 0.433,-0.695 0.386,-0.695C0.335,-0.695 0.294,-0.684 0.265,-0.662C0.236,-0.64 0.221,-0.61 0.221,-0.572C0.221,-0.543 0.231,-0.521 0.25,-0.504C0.269,-0.487 0.298,-0.475 0.335,-0.47L0.441,-0.458C0.516,-0.449 0.573,-0.425 0.612,-0.386C0.65,-0.347 0.669,-0.294 0.669,-0.227C0.669,-0.178 0.657,-0.135 0.634,-0.099C0.61,-0.062 0.577,-0.034 0.534,-0.014C0.491,0.007 0.441,0.017 0.383,0.017C0.325,0.017 0.274,0.008 0.23,-0.01C0.186,-0.028 0.151,-0.054 0.126,-0.088C0.101,-0.121 0.086,-0.162 0.083,-0.209L0.212,-0.209Z" style="fill-rule:nonzero;"/>
            </g>
            <g transform="matrix(93.3304,-21.7591,21.7591,93.3304,1521.94,815.81)">
                <path d="M0.31,-0L0.31,-0.676L0.055,-0.676L0.055,-0.8L0.695,-0.8L0.695,-0.676L0.44,-0.676L0.44,-0L0.31,-0Z" style="fill-rule:nonzero;"/>
            </g>
            <g transform="matrix(95.5268,-7.65834,7.65834,95.5268,1662.99,788.243)">
                <path d="M0.141,-0L0.141,-0.8L0.665,-0.8L0.665,-0.68L0.272,-0.68L0.272,-0.458L0.615,-0.458L0.615,-0.345L0.272,-0.345L0.272,-0.12L0.655,-0.12L0.655,-0L0.141,-0Z" style="fill-rule:nonzero;"/>
            </g>
            <g transform="matrix(95.6275,6.27838,-6.27838,95.6275,1806.58,781.495)">
                <path d="M0.129,-0L0.129,-0.8L0.445,-0.8C0.498,-0.8 0.544,-0.79 0.583,-0.771C0.622,-0.751 0.652,-0.723 0.674,-0.687C0.695,-0.651 0.706,-0.608 0.706,-0.559C0.706,-0.512 0.695,-0.47 0.674,-0.435C0.652,-0.399 0.622,-0.371 0.583,-0.352C0.544,-0.333 0.498,-0.323 0.445,-0.323L0.259,-0.323L0.259,-0L0.129,-0ZM0.259,-0.442L0.448,-0.442C0.487,-0.442 0.518,-0.452 0.541,-0.473C0.564,-0.494 0.575,-0.522 0.575,-0.559C0.575,-0.595 0.564,-0.623 0.541,-0.645C0.518,-0.666 0.487,-0.676 0.448,-0.676L0.259,-0.676L0.259,-0.442Z" style="fill-rule:nonzero;"/>
            </g>
            <g transform="matrix(93.6949,20.132,-20.132,93.6949,1949.61,795.526)">
                <path d="M0.129,-0L0.129,-0.8L0.445,-0.8C0.498,-0.8 0.544,-0.79 0.583,-0.771C0.622,-0.751 0.652,-0.723 0.674,-0.687C0.695,-0.651 0.706,-0.608 0.706,-0.559C0.706,-0.512 0.695,-0.47 0.674,-0.435C0.652,-0.399 0.622,-0.371 0.583,-0.352C0.544,-0.333 0.498,-0.323 0.445,-0.323L0.259,-0.323L0.259,-0L0.129,-0ZM0.259,-0.442L0.448,-0.442C0.487,-0.442 0.518,-0.452 0.541,-0.473C0.564,-0.494 0.575,-0.522 0.575,-0.559C0.575,-0.595 0.564,-0.623 0.541,-0.645C0.518,-0.666 0.487,-0.676 0.448,-0.676L0.259,-0.676L0.259,-0.442Z" style="fill-rule:nonzero;"/>
            </g>
            <g transform="matrix(89.7773,33.5272,-33.5272,89.7773,2089.13,830.365)">
                <path d="M0.141,-0L0.141,-0.8L0.665,-0.8L0.665,-0.68L0.272,-0.68L0.272,-0.458L0.615,-0.458L0.615,-0.345L0.272,-0.345L0.272,-0.12L0.655,-0.12L0.655,-0L0.141,-0Z" style="fill-rule:nonzero;"/>
            </g>
        </g>
        <g transform="matrix(1,0,0,1,-757.108,-662.318)">
            <g transform="matrix(67.5784,74.7647,-74.7647,67.5784,1143.97,2540.72)">
                <path d="M0.114,-0L0.114,-0.8L0.433,-0.8C0.485,-0.8 0.53,-0.79 0.569,-0.771C0.608,-0.752 0.638,-0.724 0.659,-0.689C0.68,-0.654 0.691,-0.612 0.691,-0.563C0.691,-0.518 0.68,-0.479 0.659,-0.445C0.637,-0.411 0.607,-0.385 0.568,-0.366C0.529,-0.347 0.484,-0.337 0.433,-0.337L0.245,-0.337L0.245,-0L0.114,-0ZM0.56,-0L0.329,-0.359L0.474,-0.359L0.711,-0L0.56,-0ZM0.245,-0.449L0.432,-0.449C0.471,-0.449 0.502,-0.46 0.525,-0.481C0.548,-0.501 0.56,-0.529 0.56,-0.563C0.56,-0.597 0.548,-0.624 0.525,-0.645C0.502,-0.666 0.471,-0.676 0.432,-0.676L0.245,-0.676L0.245,-0.449Z" style="fill-rule:nonzero;"/>
            </g>
            <g transform="matrix(75.4156,66.8512,-66.8512,75.4156,1225.16,2627.52)">
                <path d="M0.141,-0L0.141,-0.8L0.665,-0.8L0.665,-0.68L0.272,-0.68L0.272,-0.458L0.615,-0.458L0.615,-0.345L0.272,-0.345L0.272,-0.12L0.655,-0.12L0.655,-0L0.141,-0Z" style="fill-rule:nonzero;"/>
            </g>
            <g transform="matrix(82.3508,58.0942,-58.0942,82.3508,1315.49,2704.75)">
                <path d="M0.093,-0L0.093,-0.8L0.342,-0.8C0.458,-0.8 0.546,-0.766 0.607,-0.698C0.667,-0.63 0.697,-0.531 0.697,-0.4C0.697,-0.27 0.667,-0.171 0.607,-0.103C0.546,-0.034 0.458,-0 0.342,-0L0.093,-0ZM0.224,-0.123L0.342,-0.123C0.416,-0.123 0.472,-0.146 0.51,-0.193C0.547,-0.24 0.566,-0.309 0.566,-0.4C0.566,-0.492 0.547,-0.561 0.51,-0.608C0.472,-0.654 0.416,-0.677 0.342,-0.677L0.224,-0.677L0.224,-0.123Z" style="fill-rule:nonzero;"/>
            </g>
            <g transform="matrix(88.2438,48.6788,-48.6788,88.2438,1413.93,2771.41)">
                <path d="M0.075,-0L0.075,-0.8L0.277,-0.8L0.372,-0.351L0.384,-0.351L0.479,-0.8L0.675,-0.8L0.675,-0L0.555,-0L0.555,-0.459L0.561,-0.699L0.549,-0.699L0.458,-0.265L0.292,-0.265L0.201,-0.699L0.189,-0.699L0.195,-0.459L0.195,-0L0.075,-0Z" style="fill-rule:nonzero;"/>
            </g>
            <g transform="matrix(93.1585,38.4458,-38.4458,93.1585,1519.12,2826.66)">
                <path d="M0.375,0.017C0.27,0.017 0.19,-0.018 0.135,-0.089C0.08,-0.16 0.053,-0.263 0.053,-0.4C0.053,-0.537 0.08,-0.64 0.135,-0.711C0.19,-0.782 0.27,-0.817 0.375,-0.817C0.48,-0.817 0.56,-0.782 0.615,-0.711C0.67,-0.64 0.697,-0.537 0.697,-0.4C0.697,-0.263 0.67,-0.16 0.615,-0.089C0.56,-0.018 0.48,0.017 0.375,0.017ZM0.375,-0.106C0.44,-0.106 0.488,-0.13 0.519,-0.179C0.55,-0.227 0.566,-0.301 0.566,-0.4C0.566,-0.499 0.55,-0.573 0.519,-0.622C0.488,-0.67 0.44,-0.694 0.375,-0.694C0.31,-0.694 0.262,-0.67 0.231,-0.622C0.2,-0.573 0.184,-0.499 0.184,-0.4C0.184,-0.301 0.2,-0.227 0.231,-0.179C0.262,-0.13 0.31,-0.106 0.375,-0.106Z" style="fill-rule:nonzero;"/>
            </g>
            <g transform="matrix(96.9068,27.6705,-27.6705,96.9068,1630,2869.76)">
                <path d="M0.085,-0L0.085,-0.8L0.308,-0.8L0.536,-0.086L0.549,-0.086L0.543,-0.298L0.543,-0.8L0.665,-0.8L0.665,-0L0.442,-0L0.214,-0.714L0.201,-0.714L0.207,-0.502L0.207,-0L0.085,-0Z" style="fill-rule:nonzero;"/>
            </g>
            <g transform="matrix(99.4407,16.3752,-16.3752,99.4407,1744.87,2900.09)">
                <path d="M0.093,-0L0.093,-0.8L0.342,-0.8C0.458,-0.8 0.546,-0.766 0.607,-0.698C0.667,-0.63 0.697,-0.531 0.697,-0.4C0.697,-0.27 0.667,-0.171 0.607,-0.103C0.546,-0.034 0.458,-0 0.342,-0L0.093,-0ZM0.224,-0.123L0.342,-0.123C0.416,-0.123 0.472,-0.146 0.51,-0.193C0.547,-0.24 0.566,-0.309 0.566,-0.4C0.566,-0.492 0.547,-0.561 0.51,-0.608C0.472,-0.654 0.416,-0.677 0.342,-0.677L0.224,-0.677L0.224,-0.123Z" style="fill-rule:nonzero;"/>
            </g>
            <g transform="matrix(43.7192,-1.64239,1.64239,43.7192,1979.98,2891.78)">
                <path d="M0.375,-0.139C0.308,-0.139 0.256,-0.157 0.219,-0.194C0.182,-0.231 0.164,-0.283 0.164,-0.35C0.164,-0.417 0.182,-0.469 0.219,-0.506C0.256,-0.543 0.308,-0.561 0.375,-0.561C0.442,-0.561 0.494,-0.543 0.531,-0.506C0.568,-0.469 0.586,-0.417 0.586,-0.35C0.586,-0.283 0.568,-0.231 0.531,-0.194C0.494,-0.157 0.442,-0.139 0.375,-0.139Z" style="fill-rule:nonzero;"/>
            </g>
            <g transform="matrix(98.3753,-21.8837,21.8837,98.3753,2150.69,2903.64)">
                <path d="M0.375,0.017C0.27,0.017 0.19,-0.018 0.135,-0.089C0.08,-0.16 0.053,-0.263 0.053,-0.4C0.053,-0.537 0.08,-0.64 0.135,-0.711C0.19,-0.782 0.27,-0.817 0.375,-0.817C0.48,-0.817 0.56,-0.782 0.615,-0.711C0.67,-0.64 0.697,-0.537 0.697,-0.4C0.697,-0.263 0.67,-0.16 0.615,-0.089C0.56,-0.018 0.48,0.017 0.375,0.017ZM0.375,-0.106C0.44,-0.106 0.488,-0.13 0.519,-0.179C0.55,-0.227 0.566,-0.301 0.566,-0.4C0.566,-0.499 0.55,-0.573 0.519,-0.622C0.488,-0.67 0.44,-0.694 0.375,-0.694C0.31,-0.694 0.262,-0.67 0.231,-0.622C0.2,-0.573 0.184,-0.499 0.184,-0.4C0.184,-0.301 0.2,-0.227 0.231,-0.179C0.262,-0.13 0.31,-0.106 0.375,-0.106Z" style="fill-rule:nonzero;"/>
            </g>
            <g transform="matrix(95.1501,-33.2122,33.2122,95.1501,2266.35,2875.54)">
                <path d="M0.114,-0L0.114,-0.8L0.433,-0.8C0.485,-0.8 0.53,-0.79 0.569,-0.771C0.608,-0.752 0.638,-0.724 0.659,-0.689C0.68,-0.654 0.691,-0.612 0.691,-0.563C0.691,-0.518 0.68,-0.479 0.659,-0.445C0.637,-0.411 0.607,-0.385 0.568,-0.366C0.529,-0.347 0.484,-0.337 0.433,-0.337L0.245,-0.337L0.245,-0L0.114,-0ZM0.56,-0L0.329,-0.359L0.474,-0.359L0.711,-0L0.56,-0ZM0.245,-0.449L0.432,-0.449C0.471,-0.449 0.502,-0.46 0.525,-0.481C0.548,-0.501 0.56,-0.529 0.56,-0.563C0.56,-0.597 0.548,-0.624 0.525,-0.645C0.502,-0.666 0.471,-0.676 0.432,-0.676L0.245,-0.676L0.245,-0.449Z" style="fill-rule:nonzero;"/>
            </g>
            <g transform="matrix(90.8374,-43.6482,43.6482,90.8374,2377.9,2834.42)">
                <path d="M0.141,-0L0.141,-0.8L0.665,-0.8L0.665,-0.68L0.272,-0.68L0.272,-0.458L0.615,-0.458L0.615,-0.345L0.272,-0.345L0.272,-0.12L0.655,-0.12L0.655,-0L0.141,-0Z" style="fill-rule:nonzero;"/>
            </g>
            <g transform="matrix(85.5002,-53.3509,53.3509,85.5002,2483.98,2780.99)">
                <path d="M0.355,0.016C0.264,0.016 0.194,-0.02 0.143,-0.091C0.092,-0.162 0.067,-0.265 0.067,-0.4C0.067,-0.537 0.095,-0.64 0.15,-0.711C0.205,-0.782 0.286,-0.817 0.392,-0.817C0.45,-0.817 0.5,-0.806 0.543,-0.783C0.585,-0.76 0.618,-0.728 0.644,-0.686C0.669,-0.644 0.683,-0.594 0.688,-0.535L0.564,-0.535C0.553,-0.585 0.534,-0.624 0.506,-0.652C0.477,-0.68 0.439,-0.694 0.392,-0.694C0.327,-0.694 0.278,-0.67 0.246,-0.622C0.214,-0.573 0.198,-0.499 0.198,-0.4C0.198,-0.297 0.214,-0.222 0.245,-0.173C0.276,-0.124 0.325,-0.099 0.391,-0.099C0.421,-0.099 0.448,-0.107 0.473,-0.124C0.498,-0.141 0.517,-0.163 0.532,-0.192C0.546,-0.22 0.553,-0.251 0.553,-0.286L0.368,-0.286L0.368,-0.406L0.669,-0.406L0.669,-0L0.553,-0L0.553,-0.07L0.521,-0.07C0.509,-0.043 0.488,-0.022 0.459,-0.007C0.43,0.009 0.395,0.016 0.355,0.016Z" style="fill-rule:nonzero;"/>
            </g>
            <g transform="matrix(79.0231,-62.5455,62.5455,79.0231,2583.52,2716.04)">
                <path d="M0.375,0.017C0.27,0.017 0.19,-0.018 0.135,-0.089C0.08,-0.16 0.053,-0.263 0.053,-0.4C0.053,-0.537 0.08,-0.64 0.135,-0.711C0.19,-0.782 0.27,-0.817 0.375,-0.817C0.48,-0.817 0.56,-0.782 0.615,-0.711C0.67,-0.64 0.697,-0.537 0.697,-0.4C0.697,-0.263 0.67,-0.16 0.615,-0.089C0.56,-0.018 0.48,0.017 0.375,0.017ZM0.375,-0.106C0.44,-0.106 0.488,-0.13 0.519,-0.179C0.55,-0.227 0.566,-0.301 0.566,-0.4C0.566,-0.499 0.55,-0.573 0.519,-0.622C0.488,-0.67 0.44,-0.694 0.375,-0.694C0.31,-0.694 0.262,-0.67 0.231,-0.622C0.2,-0.573 0.184,-0.499 0.184,-0.4C0.184,-0.301 0.2,-0.227 0.231,-0.179C0.262,-0.13 0.31,-0.106 0.375,-0.106Z" style="fill-rule:nonzero;"/>
            </g>
            <g transform="matrix(71.5665,-70.9565,70.9565,71.5665,2675.25,2640.36)">
                <path d="M0.085,-0L0.085,-0.8L0.308,-0.8L0.536,-0.086L0.549,-0.086L0.543,-0.298L0.543,-0.8L0.665,-0.8L0.665,-0L0.442,-0L0.214,-0.714L0.201,-0.714L0.207,-0.502L0.207,-0L0.085,-0Z" style="fill-rule:nonzero;"/>
            </g>
        </g>
        <circle cx="1200" cy="1200" r="1106" style="fill:none;stroke:black;stroke-width:6px;"/>
        <circle cx="1200" cy="1200" r="930" style="fill:none;stroke:black;stroke-width:13px;"/>
        <circle cx="1200" cy="1200" r="901" style="fill:none;stroke:black;stroke-width:5px;"/>
        <path d="M2215,1170.3L2244.7,1200L2215,1229.7L2185.3,1200L2215,1170.3Z" style="fill:rgb(23,19,15);"/>
        <path d="M185,1170.3L214.698,1200L185,1229.7L155.302,1200L185,1170.3Z" style="fill:rgb(23,19,15);"/>
        <circle cx="1200" cy="1200" r="886" style="fill:none;"/>
        <clipPath id="_clip8">
            <circle cx="1200" cy="1200" r="886"/>
        </clipPath>
        <g clip-path="url(#_clip8)">
            <clipPath id="_clip9">
                <rect x="296.311" y="787.572" width="1789.69" height="243.731"/>
            </clipPath>
            <g clip-path="url(#_clip9)">
                <path d="M2086,1007.38C2088.84,924.99 2091.26,813.528 2057.43,771.231C1633.5,241.171 563.978,316.098 358.129,723.881C321.364,796.711 288.776,914.032 297.843,985.986C300.199,1004.68 305.365,1020.31 314,1031.3C314,1031.3 625.916,1024.67 706.566,1022.02C742.302,1020.84 864.191,1017.59 953.194,1018.5C968.549,1018.66 970.82,1020.39 1176.8,1012.15C1179.37,1012.05 1191.82,1010.99 1221.46,1009.93C1246.57,1009.04 1224.04,1010.26 1272.9,1009.45C1285.15,984.75 1285.97,984.503 1308.29,934.073C1316.63,915.222 1307.59,935.315 1335.15,868.248C1338.05,861.186 1348.44,833.852 1355.94,812.685C1359.96,801.355 1371.16,809.509 1383.19,810.503C1407.13,812.481 1626.11,824.867 1685,810.144C1695.83,807.435 1695.1,806.063 1705.69,803.704C1714.45,816.845 1706.74,803.998 1720.82,828.732C1735.28,854.148 1748.71,879.585 1776.4,923.545C1794.1,951.644 1796.11,955.46 1816.99,987.388C1820.28,992.418 1824.14,1005.8 1835.16,1004.98C1838.37,1004.75 2085.85,1011.69 2086,1007.38Z" style="fill:none;stroke:black;stroke-width:13px;stroke-miterlimit:0.96;"/>
            </g>
            <clipPath id="_clip10">
                <rect x="314" y="1131.2" width="1790.78" height="68.803"/>
            </clipPath>
            <g clip-path="url(#_clip10)">
                <path d="M320.731,1343.42C404.73,1305.93 528.787,1339.89 611.912,1329.51C714.473,1316.68 880.754,1418.49 1102.75,1359.3C1116.59,1355.6 1338.15,1346.42 1366.61,1347.95C1492.21,1354.68 1505.69,1362.32 1628.37,1337.79C1648.3,1333.8 1780.37,1305.11 1922.88,1290.11C1948.38,1287.43 2023.03,1268.39 2073.66,1273.16C2116.26,1277.18 2104,1230.38 2100.2,1185.07C2098.22,1161.48 2100.91,1140.93 2086,1139.5C2024.53,1133.6 1976.3,1131.29 1940.58,1131.2C1771.61,1130.81 1783.75,1149.32 1717.19,1146.96C1677.9,1145.56 1507.12,1157.5 1399.15,1165.68C1309.85,1172.46 1230.94,1160.7 1225.14,1160.54C1123.47,1157.72 1030.66,1175.76 963.627,1173.91C879.314,1171.59 824.212,1171.65 756.823,1167.25C626.51,1158.74 565.713,1181.7 491.698,1185.87C365.311,1192.99 345.36,1165.94 314,1162.72" style="fill:none;stroke:black;stroke-width:9px;stroke-miterlimit:0.96;"/>
            </g>
            <clipPath id="_clip11">
                <rect x="314" y="1268.8" width="1777.47" height="136.018"/>
            </clipPath>
            <g clip-path="url(#_clip11)">
                <path d="M343.448,1489.02C412.356,1516.23 775.578,1461.46 879.679,1486.9C1254.88,1578.62 1260.59,1462.93 1643.95,1496.9C1858.98,1515.96 2081.89,1482.86 2086,1430.3C2086.64,1422.09 2097.97,1274.36 2086,1269.87C2076.11,1266.16 2009.75,1273.26 1957.52,1273.35C1907.98,1273.44 1847.49,1264.92 1788.48,1271.24C1675.96,1283.3 1563.91,1314.09 1508.89,1314.09C1297.02,1314.09 1278.03,1288.02 1083.62,1302.31C815.81,1322 825.794,1289.73 526.83,1316.91C400.859,1328.36 414.249,1318.68 314,1317.52" style="fill:none;stroke:black;stroke-width:9px;stroke-miterlimit:0.96;"/>
            </g>
            <clipPath id="_clip12">
                <rect x="340.825" y="1456.32" width="1785.16" height="112.02"/>
            </clipPath>
            <g clip-path="url(#_clip12)">
                <path d="M340.825,1479.24C432.785,1512.55 673.315,1425.34 890.014,1468.68C1032.17,1497.11 1126.91,1483.64 1202.73,1476.27C1337.34,1463.18 1416.2,1475.82 1642.7,1494.65C1871.67,1513.69 1957.98,1434.03 2104.78,1462.7C2159.31,1473.35 2091.47,1575.94 2091.47,1575.94C2078.82,1604.59 2074.28,1643.12 2040.7,1643.01C1984.99,1642.81 1896.41,1653.02 1832.14,1642.65C1400.58,1573.04 1388.7,1702.52 1051.94,1642.65C780.532,1594.4 441.958,1634.51 390.845,1613.21" style="fill:none;stroke:black;stroke-width:9px;stroke-miterlimit:0.96;"/>
            </g>
            <clipPath id="_clip13">
                <rect x="389.103" y="1589.93" width="1636.91" height="95.696"/>
            </clipPath>
            <g clip-path="url(#_clip13)">
                <path d="M428.316,1606.52C657.382,1644.69 652.932,1586.27 884.047,1605.14C997.797,1614.42 1003.12,1615.67 1117.52,1627.93C1386.36,1656.73 1411.11,1585.41 1593.94,1615.88C1602.68,1617.34 1672.28,1626.35 1767.91,1630.66C1888.53,1636.1 1917.69,1605.81 2008.44,1626.3C2055.16,1636.85 1996.97,1632.95 1969.99,1673.43C1941.89,1715.58 1930.56,1783.05 1822.5,1767.62C1769.63,1760.07 1694.81,1783.53 1583.95,1785.79C1525.62,1786.97 1454.98,1779.34 1375.16,1778.82C1301.44,1778.35 1214.73,1789.52 1119.76,1787.05C1068.53,1785.72 897.302,1765.15 720.215,1754.53C602.731,1747.48 469.598,1764.69 453.334,1732.29C444.217,1714.12 422.638,1649.82 400.052,1612.43C370.392,1563.32 408.214,1610.54 428.316,1606.52Z" style="fill:none;stroke:black;stroke-width:9px;stroke-miterlimit:0.96;"/>
            </g>
            <clipPath id="_clip14">
                <rect x="476.374" y="1731.26" width="1443.17" height="65.308"/>
            </clipPath>
            <g clip-path="url(#_clip14)">
                <path d="M492.131,1750.22C675.063,1729.13 782.832,1722.2 877.786,1747.38C963.931,1770.23 1063.14,1783.57 1233.4,1770.06C1327.98,1762.55 1394.66,1752.13 1446.57,1751.71C1532.68,1751.01 1581.65,1763.28 1675.57,1755.06C1899.53,1735.47 1920.8,1729.26 1919.5,1747.5C1918.58,1760.36 1857.09,1863.09 1749.17,1910.3C1654.24,1951.83 1637.12,2039.83 1306.21,2094.98C1220.02,2109.35 959.65,2088.98 923.471,2070.89C779.89,1999.1 779.105,2001.95 661.173,1922.35C646.482,1912.43 590.087,1896.33 562.142,1835.36C555.656,1821.21 472.804,1755.43 476.494,1744.36" style="fill:none;stroke:black;stroke-width:9px;stroke-miterlimit:0.96;"/>
            </g>
        </g>
        <circle cx="874" cy="720" r="108" style="fill:none;stroke:black;stroke-width:10px;stroke-miterlimit:0.96;"/>
        <path d="M481.842,1532.87C505.238,1531.85 518.279,1532.28 538.588,1531.71" style="fill:none;stroke:black;stroke-width:7px;stroke-miterlimit:0.96;"/>
        <path d="M837.769,1529.51C855.936,1529.82 874.102,1530.13 892.268,1530.44" style="fill:none;stroke:black;stroke-width:7px;stroke-miterlimit:0.96;"/>
        <path d="M896.492,1507.51C915.367,1507.77 934.242,1508.02 953.117,1508.27" style="fill:none;stroke:black;stroke-width:7px;stroke-miterlimit:0.96;"/>
        <path d="M1129.56,1531.55L1168.74,1531.71" style="fill:none;stroke:black;stroke-width:7px;stroke-miterlimit:0.96;"/>
        <path d="M1161.03,1509.23C1187.31,1508.78 1213.59,1508.34 1239.87,1507.89" style="fill:none;stroke:black;stroke-width:7px;stroke-miterlimit:0.96;"/>
        <path d="M1504.75,1565.42C1532.61,1565.79 1534.18,1565.79 1561.94,1566.3" style="fill:none;stroke:black;stroke-width:7px;stroke-miterlimit:0.96;"/>
        <path d="M1540.9,1582.51C1556.11,1582.69 1571.32,1582.87 1586.53,1583.05" style="fill:none;stroke:black;stroke-width:7px;stroke-miterlimit:0.96;"/>
        <path d="M1772.03,1582.88C1805.73,1582.31 1806.03,1582.42 1849.4,1583.11" style="fill:none;stroke:black;stroke-width:7px;stroke-miterlimit:0.96;"/>
        <path d="M476.681,1269.94L476.494,1271.95" style="fill:none;stroke:black;stroke-width:8px;stroke-miterlimit:0.96;"/>
        <path d="M483.251,1234.67L480.508,1234.48" style="fill:none;stroke:black;stroke-width:8px;stroke-miterlimit:0.96;"/>
        <path d="M511.843,1274.02L511.288,1274.63" style="fill:none;stroke:black;stroke-width:8px;stroke-miterlimit:0.96;"/>
        <path d="M684.105,1228.65L679.908,1230.47" style="fill:none;stroke:black;stroke-width:8px;stroke-miterlimit:0.96;"/>
        <path d="M613.424,1241.94L611.657,1241.17" style="fill:none;stroke:black;stroke-width:8px;stroke-miterlimit:0.96;"/>
        <path d="M1020.99,1254.88L1019.83,1257.23" style="fill:none;stroke:black;stroke-width:8px;stroke-miterlimit:0.96;"/>
        <path d="M1027.38,1209.68L1025.18,1209.06" style="fill:none;stroke:black;stroke-width:8px;stroke-miterlimit:0.96;"/>
        <path d="M1367.29,1241.23L1367.77,1241.17" style="fill:none;stroke:black;stroke-width:8px;stroke-miterlimit:0.96;"/>
        <path d="M1185.26,1229.71L1184.43,1230.47" style="fill:none;stroke:black;stroke-width:8px;stroke-miterlimit:0.96;"/>
        <path d="M1597.8,1247.08L1597.95,1246.53" style="fill:none;stroke:black;stroke-width:8px;stroke-miterlimit:0.96;"/>
        <path d="M1636.16,1191.25L1634.08,1190.32" style="fill:none;stroke:black;stroke-width:8px;stroke-miterlimit:0.96;"/>
        <path d="M1771.84,1212.17L1767.91,1213.07" style="fill:none;stroke:black;stroke-width:8px;stroke-miterlimit:0.96;"/>
        <path d="M1920.66,1169.63L1920.47,1167.57" style="fill:none;stroke:black;stroke-width:8px;stroke-miterlimit:0.96;"/>
        <path d="M1922.61,1234.5L1924.49,1231.81" style="fill:none;stroke:black;stroke-width:10px;stroke-miterlimit:0.96;"/>
        <path d="M421.095,1251.33L418.949,1249.2" style="fill:none;stroke:black;stroke-width:10px;stroke-miterlimit:0.96;"/>
        <path d="M613.779,1267.11L614.334,1269.28" style="fill:none;stroke:black;stroke-width:10px;stroke-miterlimit:0.96;"/>
        <path d="M611.648,1201L608.981,1199.69" style="fill:none;stroke:black;stroke-width:10px;stroke-miterlimit:0.96;"/>
        <path d="M795.453,1221.03L799.013,1217.09" style="fill:none;stroke:black;stroke-width:10px;stroke-miterlimit:0.96;"/>
        <path d="M818.184,1250.8L817.748,1250.54" style="fill:none;stroke:black;stroke-width:10px;stroke-miterlimit:0.96;"/>
        <path d="M913.195,1200.29L910.088,1202.36" style="fill:none;stroke:black;stroke-width:10px;stroke-miterlimit:0.96;"/>
        <path d="M884.958,1238.39L880.646,1238.5" style="fill:none;stroke:black;stroke-width:10px;stroke-miterlimit:0.96;"/>
        <path d="M1070.72,1235.38L1069.34,1235.82" style="fill:none;stroke:black;stroke-width:10px;stroke-miterlimit:0.96;"/>
        <path d="M1345.98,1268.17L1345.02,1267.94" style="fill:none;stroke:black;stroke-width:10px;stroke-miterlimit:0.96;"/>
        <path d="M1363.2,1243.36L1362.42,1241.17" style="fill:none;stroke:black;stroke-width:10px;stroke-miterlimit:0.96;"/>
        <path d="M1395.35,1249.74L1391.86,1249.2" style="fill:none;stroke:black;stroke-width:10px;stroke-miterlimit:0.96;"/>
        <path d="M1409.2,1267.99L1407.92,1267.94" style="fill:none;stroke:black;stroke-width:10px;stroke-miterlimit:0.96;"/>
        <path d="M1407.07,1269.59L1403.9,1266.6" style="fill:none;stroke:black;stroke-width:10px;stroke-miterlimit:0.96;"/>
        <path d="M1515.22,1268.17L1514.98,1267.94" style="fill:none;stroke:black;stroke-width:10px;stroke-miterlimit:0.96;"/>
        <path d="M1570.27,1241.59L1567.17,1242.51" style="fill:none;stroke:black;stroke-width:10px;stroke-miterlimit:0.96;"/>
        <path d="M1484.68,1197.28L1484.2,1195.67" style="fill:none;stroke:black;stroke-width:10px;stroke-miterlimit:0.96;"/>
        <path d="M1143.17,1179.38L1142.94,1179.61" style="fill:none;stroke:black;stroke-width:10px;stroke-miterlimit:0.96;"/>
        <path d="M1719.98,1249.91L1722.41,1247.86" style="fill:none;stroke:black;stroke-width:10px;stroke-miterlimit:0.96;"/>
        <path d="M1743.42,1240.52L1739.81,1242.51" style="fill:none;stroke:black;stroke-width:10px;stroke-miterlimit:0.96;"/>
        <path d="M1786.58,1170.87L1786.64,1170.25" style="fill:none;stroke:black;stroke-width:10px;stroke-miterlimit:0.96;"/>
        <path d="M2010.16,1191.96L2006.12,1193" style="fill:none;stroke:black;stroke-width:13px;stroke-miterlimit:0.96;"/>
        <path d="M561.391,1263.21L559.465,1265.26" style="fill:none;stroke:black;stroke-width:13px;stroke-miterlimit:0.96;"/>
        <path d="M554.642,1213.76L552.774,1211.73" style="fill:none;stroke:black;stroke-width:13px;stroke-miterlimit:0.96;"/>
        <path d="M930.598,1266.57L930.162,1265.26" style="fill:none;stroke:black;stroke-width:13px;stroke-miterlimit:0.96;"/>
        <path d="M1351.31,1226.88L1347.7,1221.1" style="fill:none;stroke:black;stroke-width:13px;stroke-miterlimit:0.96;"/>
        <path d="M1532.27,1187.18L1532.38,1187.64" style="fill:none;stroke:black;stroke-width:13px;stroke-miterlimit:0.96;"/>
        <path d="M1551.81,1183.63L1555.13,1180.95" style="fill:none;stroke:black;stroke-width:13px;stroke-miterlimit:0.96;"/>
        <path d="M1830.27,1184.52L1832.14,1183.63" style="fill:none;stroke:black;stroke-width:13px;stroke-miterlimit:0.96;"/>
        <path d="M1853.17,1184.16L1852.22,1183.63" style="fill:none;stroke:black;stroke-width:13px;stroke-miterlimit:0.96;"/>
        <path d="M1830.8,1165.73L1830.81,1160.88" style="fill:none;stroke:black;stroke-width:13px;stroke-miterlimit:0.96;"/>
        <path d="M1680.02,1207.2L1679.58,1206.38" style="fill:none;stroke:black;stroke-width:13px;stroke-miterlimit:0.96;"/>
        <path d="M1133.94,1257.18L1129.56,1257.23" style="fill:none;stroke:black;stroke-width:13px;stroke-miterlimit:0.96;"/>
        <path d="M1263.76,1195.86L1263.39,1197.01" style="fill:none;stroke:black;stroke-width:11px;stroke-miterlimit:0.96;"/>
        <path d="M353.078,1212.17L350.698,1209.06" style="fill:none;stroke:black;stroke-width:11px;stroke-miterlimit:0.96;"/>
        <path d="M538.837,1228.29L532.7,1227.79" style="fill:none;stroke:black;stroke-width:11px;stroke-miterlimit:0.96;"/>
        <path d="M564.41,1230.78L560.804,1230.47" style="fill:none;stroke:black;stroke-width:11px;stroke-miterlimit:0.96;"/>
        <path d="M703.462,1180.44L699.982,1179.61" style="fill:none;stroke:black;stroke-width:11px;stroke-miterlimit:0.96;"/>
        <path d="M726.904,1224.57L726.747,1225.11" style="fill:none;stroke:black;stroke-width:11px;stroke-miterlimit:0.96;"/>
        <path d="M1293.06,1263.03L1292.83,1258.57" style="fill:none;stroke:black;stroke-width:7px;stroke-miterlimit:0.96;"/>
    </g>
</svg>
