<svg xmlns="http://www.w3.org/2000/svg" width="267" height="120" viewBox="0 0 267.11 120"><defs><clipPath id="L"><circle cx="60" cy="60" r="53"/></clipPath></defs><g clip-path="url(#L)"><rect x="5" y="5" width="110" height="47" fill="#cfe0dd"/><rect x="5" y="52" width="110" height="16" fill="#9CAD8B"/><rect x="5" y="68" width="110" height="20" fill="#36563D"/><rect x="5" y="88" width="110" height="27" fill="#34383D"/><circle cx="82" cy="34" r="11" fill="#A8542C"/></g><circle cx="60" cy="60" r="57" fill="none" stroke="#36563D" stroke-width="3"/><g transform="translate(146.00,32.40) scale(0.32955)"><g transform="translate(0,125.00) scale(0.05000,-0.05000)" fill="#2A2E2C"><path transform="translate(0,0)" d="M1111.5 1032Q1116.5 1000 1120.75 990.0Q1125 980 1163 980H1239.5Q1268 980 1276.5 986.5Q1285 993 1285 1020.5V1460.5Q1285 1484.5 1277.25 1492.25Q1269.5 1500 1247 1500H1138Q1119.5 1500 1115.0 1495.75Q1110.5 1491.5 1104 1480.5L1076 1423.5Q1059.5 1392.5 1045.75 1392.5Q1032 1392.5 1009 1411Q945.5 1462.5 857.5 1493.75Q769.5 1525 665 1525Q567 1525 474.75 1499.75Q382.5 1474.5 309.25 1420.75Q236 1367 193.0 1283.75Q150 1200.5 150 1084Q150 962 197.25 883.75Q244.5 805.5 322.5 757.5Q400.5 709.5 494.0 680.0Q587.5 650.5 681.0 627.25Q774.5 604 852.5 574.25Q930.5 544.5 977.75 497.0Q1025 449.5 1025 370Q1025 311 991.25 260.0Q957.5 209 886.75 178.0Q816 147 705 147Q580.5 147 488.25 199.25Q396 251.5 342.0 334.25Q288 417 277.5 508.5Q275 532.5 271.25 541.25Q267.5 550 240 550H146Q120 550 112.5 543.0Q105 536 105 509.5V29.5Q105 4.5 115.0 -2.75Q125 -10 151 -10H229Q257.5 -10 268.5 -5.5Q279.5 -1 288.5 17.5L313 73Q330.5 107.5 340.75 115.25Q351 123 378 98Q441.5 40.5 536.25 2.75Q631 -35 755 -35Q931 -35 1062.75 15.0Q1194.5 65 1267.25 170.0Q1340 275 1340 440Q1340 566.5 1292.5 649.25Q1245 732 1166.5 784.0Q1088 836 994.25 868.5Q900.5 901 806.75 925.5Q713 950 634.5 978.0Q556 1006 508.5 1049.25Q461 1092.5 461 1163Q461 1240.5 524.75 1291.75Q588.5 1343 725 1343Q817 1343 900.25 1307.25Q983.5 1271.5 1040.75 1202.25Q1098 1133 1111.5 1032Z"/><path transform="translate(1413,0)" d="M812.5 190Q821 205 815.5 212.5Q810 220 793.5 228.5L737 260.5Q719.5 269 712.75 265.25Q706 261.5 697 246Q670 198 640.25 175.0Q610.5 152 576 152Q538 152 517.0 178.5Q496 205 496 261V847Q496 866.5 505.25 873.25Q514.5 880 532.5 880H739.5Q755.5 880 762.75 884.5Q770 889 770 904.5V1009.5Q770 1028.5 764.25 1034.25Q758.5 1040 741 1040H531.5Q510.5 1040 503.25 1046.75Q496 1053.5 496 1075.5V1329Q496 1360 466 1360H387.5Q362.5 1360 358.25 1353.5Q354 1347 349.5 1327Q327.5 1228 298.0 1170.25Q268.5 1112.5 230.75 1084.75Q193 1057 146.25 1048.5Q99.5 1040 43 1040Q22 1040 16.0 1034.75Q10 1029.5 10 1008V911Q10 891.5 16.25 885.75Q22.5 880 42 880H165.5Q185.5 880 190.75 871.75Q196 863.5 196 843.5V222Q196 99.5 260.75 35.25Q325.5 -29 467 -29Q567.5 -29 633.5 2.25Q699.5 33.5 741.75 83.75Q784 134 812.5 190Z"/><path transform="translate(2252,0)" d="M70 500Q70 360 129.25 239.0Q188.5 118 306.75 44.0Q425 -30 601 -30Q728 -30 826.5 10.5Q925 51 990.75 129.5Q1056.5 208 1085.5 322.5Q1089 336.5 1084.25 341.25Q1079.5 346 1061.5 346H926.5Q910 346 904.75 339.5Q899.5 333 895 322Q857 228 794.25 175.0Q731.5 122 635 122Q548 122 496.0 168.0Q444 214 420.25 290.5Q396.5 367 393.5 457.5Q393 475.5 398.0 481.25Q403 487 421.5 487H1066Q1088 487 1094.5 493.0Q1101 499 1101 520.5Q1101 588.5 1088.75 664.0Q1076.5 739.5 1045.75 811.5Q1015 883.5 960.25 942.0Q905.5 1000.5 820.75 1035.25Q736 1070 615 1070Q434 1070 312.75 994.0Q191.5 918 130.75 789.0Q70 660 70 500ZM425 633Q403 633 399.75 639.25Q396.5 645.5 398 664Q401.5 731.5 424.75 791.5Q448 851.5 493.5 889.25Q539 927 609 927Q656 927 689.75 902.0Q723.5 877 745.75 836.25Q768 795.5 779.25 747.75Q790.5 700 791.5 654.5Q792.5 639.5 788.5 636.25Q784.5 633 764 633Z"/><path transform="translate(3427,0)" d="M527.5 521Q527.5 625 557.0 710.25Q586.5 795.5 639.5 846.25Q692.5 897 763.5 897Q827.5 897 877.25 846.25Q927 795.5 955.25 710.25Q983.5 625 983.5 521Q983.5 417 955.25 331.75Q927 246.5 877.25 195.75Q827.5 145 763.5 145Q692.5 145 639.5 195.75Q586.5 246.5 557.0 331.75Q527.5 417 527.5 521ZM47.5 926Q47.5 897.5 54.75 888.75Q62 880 92.5 880H177.5Q207 880 217.25 872.75Q227.5 865.5 227.5 835V-300.5Q227.5 -331.5 220.75 -340.75Q214 -350 183.5 -350H79.5Q58 -350 52.75 -357.25Q47.5 -364.5 47.5 -386V-470Q47.5 -493.5 54.0 -501.75Q60.5 -510 85.5 -510H667.5Q693.5 -510 700.5 -504.75Q707.5 -499.5 707.5 -473.5V-385Q707.5 -362.5 700.75 -356.25Q694 -350 672.5 -350H575.5Q543.5 -350 535.5 -341.25Q527.5 -332.5 527.5 -301V52Q527.5 129 536.75 132.5Q546 136 568 106Q614 43 684.25 7.5Q754.5 -28 849.5 -28Q973.5 -28 1076.5 36.25Q1179.5 100.5 1241.5 223.25Q1303.5 346 1303.5 521Q1303.5 696 1244.25 818.75Q1185 941.5 1084.25 1005.75Q983.5 1070 859.5 1070Q753.5 1070 676.5 1027.0Q599.5 984 553 910Q540.5 890.5 534.0 891.0Q527.5 891.5 527.5 921V1005Q527.5 1028 518.0 1034.0Q508.5 1040 486.5 1040H90.5Q66.5 1040 57.0 1034.0Q47.5 1028 47.5 1001.5Z"/><path transform="translate(4801,0)" d="M527.5 521Q527.5 625 557.0 710.25Q586.5 795.5 639.5 846.25Q692.5 897 763.5 897Q827.5 897 877.25 846.25Q927 795.5 955.25 710.25Q983.5 625 983.5 521Q983.5 417 955.25 331.75Q927 246.5 877.25 195.75Q827.5 145 763.5 145Q692.5 145 639.5 195.75Q586.5 246.5 557.0 331.75Q527.5 417 527.5 521ZM47.5 926Q47.5 897.5 54.75 888.75Q62 880 92.5 880H177.5Q207 880 217.25 872.75Q227.5 865.5 227.5 835V-300.5Q227.5 -331.5 220.75 -340.75Q214 -350 183.5 -350H79.5Q58 -350 52.75 -357.25Q47.5 -364.5 47.5 -386V-470Q47.5 -493.5 54.0 -501.75Q60.5 -510 85.5 -510H667.5Q693.5 -510 700.5 -504.75Q707.5 -499.5 707.5 -473.5V-385Q707.5 -362.5 700.75 -356.25Q694 -350 672.5 -350H575.5Q543.5 -350 535.5 -341.25Q527.5 -332.5 527.5 -301V52Q527.5 129 536.75 132.5Q546 136 568 106Q614 43 684.25 7.5Q754.5 -28 849.5 -28Q973.5 -28 1076.5 36.25Q1179.5 100.5 1241.5 223.25Q1303.5 346 1303.5 521Q1303.5 696 1244.25 818.75Q1185 941.5 1084.25 1005.75Q983.5 1070 859.5 1070Q753.5 1070 676.5 1027.0Q599.5 984 553 910Q540.5 890.5 534.0 891.0Q527.5 891.5 527.5 921V1005Q527.5 1028 518.0 1034.0Q508.5 1040 486.5 1040H90.5Q66.5 1040 57.0 1034.0Q47.5 1028 47.5 1001.5Z"/><path transform="translate(6175,0)" d="M70 500Q70 360 129.25 239.0Q188.5 118 306.75 44.0Q425 -30 601 -30Q728 -30 826.5 10.5Q925 51 990.75 129.5Q1056.5 208 1085.5 322.5Q1089 336.5 1084.25 341.25Q1079.5 346 1061.5 346H926.5Q910 346 904.75 339.5Q899.5 333 895 322Q857 228 794.25 175.0Q731.5 122 635 122Q548 122 496.0 168.0Q444 214 420.25 290.5Q396.5 367 393.5 457.5Q393 475.5 398.0 481.25Q403 487 421.5 487H1066Q1088 487 1094.5 493.0Q1101 499 1101 520.5Q1101 588.5 1088.75 664.0Q1076.5 739.5 1045.75 811.5Q1015 883.5 960.25 942.0Q905.5 1000.5 820.75 1035.25Q736 1070 615 1070Q434 1070 312.75 994.0Q191.5 918 130.75 789.0Q70 660 70 500ZM425 633Q403 633 399.75 639.25Q396.5 645.5 398 664Q401.5 731.5 424.75 791.5Q448 851.5 493.5 889.25Q539 927 609 927Q656 927 689.75 902.0Q723.5 877 745.75 836.25Q768 795.5 779.25 747.75Q790.5 700 791.5 654.5Q792.5 639.5 788.5 636.25Q784.5 633 764 633Z"/></g></g></svg>